<svg width="88" height="30" fill="none" xmlns="http://www.w3.org/2000/svg"><path fill="#F44E4F" d="M.397.33h44.7v29.039H.397z"/><path d="M13.036 23.668c.958 0 1.812-.165 2.564-.493a5.572 5.572 0 0 0 1.93-1.395 6.026 6.026 0 0 0 1.197-2.085 7.856 7.856 0 0 0 .422-2.606V4.763h1.437V17.09a8.978 8.978 0 0 1-.52 3.085 7.39 7.39 0 0 1-1.508 2.494 6.88 6.88 0 0 1-2.38 1.662c-.93.404-1.978.606-3.142.606-1.165 0-2.217-.202-3.156-.606a7.06 7.06 0 0 1-2.38-1.662 7.51 7.51 0 0 1-1.494-2.494 8.979 8.979 0 0 1-.52-3.085V4.763h1.45v12.312c0 .93.136 1.799.409 2.606.281.799.68 1.493 1.197 2.085a5.606 5.606 0 0 0 1.916 1.395c.76.338 1.62.507 2.578.507ZM30.81 14.469l-6.874-9.706h1.423c.132 0 .225.028.282.085a.854.854 0 0 1 .169.197l6.057 8.734a4.89 4.89 0 0 1 .085-.211c.037-.076.08-.15.127-.226l5.846-8.283c.056-.075.117-.141.183-.197a.326.326 0 0 1 .24-.099h1.38L32.839 14.4l7.17 10.297h-1.422a.418.418 0 0 1-.31-.113 1.81 1.81 0 0 1-.183-.239L31.81 15.16c-.038.141-.103.277-.197.409l-6.17 8.776c-.066.085-.141.164-.226.24a.43.43 0 0 1-.296.112h-1.31l7.199-10.227ZM49.73 29.369V10.393h.732a.48.48 0 0 1 .296.085c.075.047.117.136.126.268l.127 2.17c.62-.846 1.343-1.518 2.17-2.015.835-.498 1.77-.747 2.803-.747 1.728 0 3.07.596 4.029 1.79.958 1.192 1.437 2.98 1.437 5.366a9.796 9.796 0 0 1-.409 2.874c-.263.883-.652 1.653-1.17 2.31a5.57 5.57 0 0 1-1.915 1.536c-.751.375-1.62.563-2.606.563-.958 0-1.784-.174-2.48-.52-.694-.348-1.295-.865-1.802-1.55v6.846h-1.339Zm5.873-18.13c-.93 0-1.774.244-2.535.732-.751.48-1.418 1.15-2 2.015v7.353c.535.808 1.127 1.376 1.775 1.705.657.328 1.403.493 2.24.493.826 0 1.549-.15 2.169-.451.62-.3 1.136-.723 1.55-1.268.422-.554.736-1.211.943-1.972.216-.77.324-1.615.324-2.536 0-2.085-.385-3.615-1.155-4.592-.76-.986-1.864-1.48-3.31-1.48ZM64.807 24.41V10.393h.704c.16 0 .273.033.338.1.075.065.118.178.127.337l.113 2.959c.45-1.137 1.052-2.024 1.803-2.663.751-.648 1.676-.972 2.775-.972.423 0 .812.047 1.17.14a4.25 4.25 0 0 1 1.013.381l-.183.93c-.028.15-.122.225-.281.225a.768.768 0 0 1-.24-.056 6.734 6.734 0 0 0-.394-.127 4.298 4.298 0 0 0-.564-.127 4.749 4.749 0 0 0-.775-.056c-1.06 0-1.934.329-2.62.986-.676.658-1.225 1.606-1.648 2.846v9.114h-1.338ZM81.344 10.168c1.005 0 1.902.174 2.69.521.799.338 1.47.822 2.015 1.451.545.63.958 1.39 1.24 2.282.29.883.436 1.874.436 2.973 0 1.099-.145 2.09-.436 2.972-.282.883-.695 1.639-1.24 2.268a5.415 5.415 0 0 1-2.015 1.451c-.788.338-1.685.507-2.69.507s-1.907-.169-2.705-.507a5.57 5.57 0 0 1-2.014-1.45c-.545-.63-.963-1.386-1.254-2.269-.282-.883-.423-1.873-.423-2.972s.141-2.09.423-2.973c.291-.892.709-1.652 1.254-2.282a5.571 5.571 0 0 1 2.014-1.45c.798-.348 1.7-.522 2.705-.522Zm0 13.369c.836 0 1.564-.141 2.183-.423a4.138 4.138 0 0 0 1.564-1.24c.423-.535.737-1.178.944-1.93.207-.76.31-1.61.31-2.55 0-.929-.103-1.774-.31-2.535-.207-.76-.521-1.409-.944-1.944a4.083 4.083 0 0 0-1.564-1.254c-.62-.29-1.347-.436-2.183-.436-.836 0-1.569.145-2.198.436a4.23 4.23 0 0 0-1.563 1.254c-.414.535-.728 1.183-.944 1.944-.207.76-.31 1.606-.31 2.536 0 .939.103 1.789.31 2.55.216.75.53 1.394.944 1.93.422.535.944.948 1.563 1.24.63.28 1.362.422 2.198.422Z" fill="#fff"/></svg>