<svg width="88" height="30" fill="none" xmlns="http://www.w3.org/2000/svg"><path fill="#F44E4F" d="M0 .481h44.7V29.52H0z"/><path d="M12.639 23.818c.958 0 1.813-.164 2.564-.493a5.572 5.572 0 0 0 1.93-1.394 6.029 6.029 0 0 0 1.197-2.085 7.859 7.859 0 0 0 .423-2.606V4.914h1.437V17.24a8.98 8.98 0 0 1-.522 3.085 7.39 7.39 0 0 1-1.507 2.493 6.877 6.877 0 0 1-2.38 1.662c-.93.404-1.978.606-3.142.606-1.165 0-2.216-.202-3.156-.605a7.058 7.058 0 0 1-2.38-1.663 7.51 7.51 0 0 1-1.494-2.493 8.979 8.979 0 0 1-.52-3.085V4.914h1.45v12.312c0 .93.136 1.798.409 2.606.281.798.68 1.493 1.197 2.085a5.606 5.606 0 0 0 1.916 1.394c.76.338 1.62.507 2.578.507ZM30.414 14.62l-6.875-9.706h1.423c.132 0 .226.028.282.084a.853.853 0 0 1 .169.197l6.057 8.734c.029-.075.057-.145.085-.211.038-.075.08-.15.127-.225l5.846-8.284a1.23 1.23 0 0 1 .183-.197.326.326 0 0 1 .24-.098h1.38l-6.889 9.635 7.17 10.298H38.19a.419.419 0 0 1-.31-.113 1.82 1.82 0 0 1-.183-.24l-6.283-9.184a1.26 1.26 0 0 1-.197.408l-6.17 8.777a1.8 1.8 0 0 1-.226.24.432.432 0 0 1-.296.112h-1.31l7.199-10.227Z" fill="#fff"/><path d="M49.333 29.52V10.543h.732a.48.48 0 0 1 .296.085c.075.046.117.136.127.267l.127 2.17c.62-.846 1.343-1.517 2.169-2.015.836-.498 1.77-.746 2.803-.746 1.728 0 3.071.596 4.03 1.789.957 1.192 1.436 2.981 1.436 5.367a9.793 9.793 0 0 1-.408 2.873c-.263.883-.653 1.653-1.17 2.31a5.57 5.57 0 0 1-1.916 1.536c-.75.376-1.62.564-2.606.564-.958 0-1.784-.174-2.479-.521-.695-.348-1.296-.864-1.803-1.55v6.846h-1.338Zm5.874-18.13c-.93 0-1.775.243-2.536.732-.751.479-1.418 1.15-2 2.014v7.354c.535.807 1.127 1.376 1.775 1.704.657.329 1.404.493 2.24.493.826 0 1.55-.15 2.17-.45.619-.301 1.136-.724 1.549-1.268.422-.554.737-1.212.944-1.973.216-.77.324-1.615.324-2.535 0-2.085-.386-3.616-1.156-4.593-.76-.986-1.864-1.479-3.31-1.479ZM64.41 24.56V10.545h.705c.16 0 .272.033.338.099.075.065.117.178.126.338l.113 2.958c.45-1.136 1.052-2.024 1.803-2.662.752-.648 1.677-.972 2.775-.972.423 0 .813.046 1.17.14.356.085.695.212 1.014.38l-.183.93c-.028.15-.122.226-.282.226a.767.767 0 0 1-.24-.056 6.81 6.81 0 0 0-.394-.127 4.302 4.302 0 0 0-.563-.127 4.75 4.75 0 0 0-.775-.056c-1.061 0-1.935.328-2.62.986-.677.657-1.226 1.606-1.648 2.845v9.115H64.41ZM80.947 10.319c1.005 0 1.902.173 2.69.52.8.339 1.47.823 2.015 1.452.545.63.958 1.39 1.24 2.282.291.883.437 1.873.437 2.972 0 1.1-.146 2.09-.437 2.973-.282.883-.695 1.639-1.24 2.268a5.416 5.416 0 0 1-2.014 1.45c-.789.339-1.686.508-2.69.508-1.006 0-1.907-.17-2.705-.507a5.572 5.572 0 0 1-2.015-1.451c-.545-.63-.962-1.386-1.254-2.268-.281-.883-.422-1.874-.422-2.973 0-1.099.14-2.09.422-2.972.291-.892.71-1.653 1.254-2.282a5.571 5.571 0 0 1 2.015-1.451c.798-.348 1.7-.521 2.704-.521Zm0 13.368c.836 0 1.564-.14 2.184-.422a4.139 4.139 0 0 0 1.563-1.24c.423-.535.738-1.179.944-1.93.207-.76.31-1.61.31-2.55 0-.93-.103-1.775-.31-2.535-.206-.761-.52-1.41-.944-1.944a4.083 4.083 0 0 0-1.563-1.254c-.62-.291-1.348-.437-2.184-.437-.835 0-1.568.146-2.197.437a4.23 4.23 0 0 0-1.564 1.254c-.413.535-.728 1.183-.944 1.944-.206.76-.31 1.606-.31 2.535 0 .94.104 1.79.31 2.55.216.751.53 1.395.944 1.93a4.29 4.29 0 0 0 1.564 1.24c.629.281 1.362.422 2.197.422Z" fill="#222"/></svg>