<svg width="509" height="508" fill="none" xmlns="http://www.w3.org/2000/svg"><path d="M254.332 507.903C114.133 507.903.479 394.249.479 254.05S114.133.197 254.332.197 508.185 113.85 508.185 254.05 394.531 507.903 254.332 507.903Z" fill="#F44E4F"/><mask id="a" style="mask-type:alpha" maskUnits="userSpaceOnUse" x="0" y="0" width="509" height="508"><path d="M254.332 507.904C114.133 507.904.479 394.249.479 254.05.479 113.85 114.133.197 254.332.197S508.185 113.85 508.185 254.05c0 140.199-113.654 253.854-253.853 253.854Z" fill="#DD3535"/></mask><g mask="url(#a)" stroke="#DD3535" stroke-width=".94" stroke-miterlimit="10" stroke-linecap="round" stroke-linejoin="round"><path d="M543.126 115.847c0 .368 0 .735-.02 1.102a35.873 35.873 0 0 0-8.817-1.102 35.512 35.512 0 0 0-26.859 12.225c-6.531-7.49-16.164-12.225-26.879-12.225-3.041 0-6.001.388-8.837 1.102-.021-.367-.021-.734-.021-1.102 0-19.715 16.001-35.716 35.717-35.716 19.736 0 35.716 16 35.716 35.716Z"/><path d="M479.857 90.846c0 .367 0 .734-.02 1.102a35.864 35.864 0 0 0-8.817-1.102 35.51 35.51 0 0 0-26.859 12.225c-6.531-7.49-16.164-12.225-26.879-12.225-3.041 0-6.001.387-8.838 1.102-.02-.368-.02-.735-.02-1.102 0-19.716 16.001-35.717 35.717-35.717 19.736 0 35.716 16 35.716 35.717Z"/><path d="M543.126 65.864c0 .368 0 .735-.02 1.102a35.858 35.858 0 0 0-8.817-1.102A35.51 35.51 0 0 0 507.43 78.09c-6.531-7.49-16.164-12.225-26.879-12.225-3.041 0-6.001.388-8.837 1.102-.021-.367-.021-.734-.021-1.102 0-19.715 16.001-35.716 35.717-35.716 19.736 0 35.716 16 35.716 35.716Z"/><path d="M479.857 40.862c0 .368 0 .735-.02 1.103a35.864 35.864 0 0 0-8.817-1.103 35.51 35.51 0 0 0-26.859 12.226c-6.531-7.49-16.164-12.226-26.879-12.226-3.041 0-6.001.388-8.838 1.103-.02-.368-.02-.735-.02-1.103 0-19.715 16.001-35.716 35.717-35.716 19.736 0 35.716 16 35.716 35.716Z"/><path d="M543.126 15.881c0 .368 0 .735-.02 1.102a35.853 35.853 0 0 0-8.817-1.102 35.51 35.51 0 0 0-26.859 12.226c-6.531-7.49-16.164-12.226-26.879-12.226-3.041 0-6.001.388-8.837 1.102-.021-.367-.021-.734-.021-1.102 0-19.715 16.001-35.716 35.717-35.716 19.736 0 35.716 16 35.716 35.716ZM543.126 215.813c0 .367 0 .735-.02 1.102a35.873 35.873 0 0 0-8.817-1.102 35.512 35.512 0 0 0-26.859 12.225c-6.531-7.49-16.164-12.225-26.879-12.225-3.041 0-6.001.388-8.837 1.102-.021-.367-.021-.735-.021-1.102 0-19.715 16.001-35.717 35.717-35.717 19.736 0 35.716 16.002 35.716 35.717Z"/><path d="M479.857 190.811c0 .368 0 .735-.02 1.103a35.831 35.831 0 0 0-8.817-1.103 35.509 35.509 0 0 0-26.859 12.226c-6.531-7.491-16.164-12.226-26.879-12.226-3.041 0-6.001.388-8.838 1.103-.02-.368-.02-.735-.02-1.103 0-19.715 16.001-35.716 35.717-35.716 19.736 0 35.716 16.001 35.716 35.716Z"/><path d="M543.126 165.83c0 .368 0 .735-.02 1.102a35.873 35.873 0 0 0-8.817-1.102 35.512 35.512 0 0 0-26.859 12.225c-6.531-7.49-16.164-12.225-26.879-12.225-3.041 0-6.001.388-8.837 1.102-.021-.367-.021-.734-.021-1.102 0-19.715 16.001-35.716 35.717-35.716 19.736 0 35.716 16.001 35.716 35.716Z"/><path d="M479.857 140.828c0 .368 0 .735-.02 1.103a35.831 35.831 0 0 0-8.817-1.103 35.509 35.509 0 0 0-26.859 12.226c-6.531-7.491-16.164-12.226-26.879-12.226-3.041 0-6.001.388-8.838 1.103-.02-.368-.02-.735-.02-1.103 0-19.715 16.001-35.716 35.717-35.716 19.736 0 35.716 16.001 35.716 35.716Z"/><path d="M543.126 115.847c0 .368 0 .735-.02 1.102a35.873 35.873 0 0 0-8.817-1.102 35.509 35.509 0 0 0-26.859 12.226c-6.531-7.491-16.164-12.226-26.879-12.226-3.041 0-6.001.388-8.837 1.102-.021-.367-.021-.734-.021-1.102 0-19.715 16.001-35.716 35.717-35.716 19.736 0 35.716 16 35.716 35.716ZM543.126 315.779c0 .367 0 .735-.02 1.102a35.873 35.873 0 0 0-8.817-1.102 35.512 35.512 0 0 0-26.859 12.225c-6.531-7.49-16.164-12.225-26.879-12.225-3.041 0-6.001.388-8.837 1.102-.021-.367-.021-.735-.021-1.102 0-19.716 16.001-35.717 35.717-35.717 19.736 0 35.716 16.001 35.716 35.717Z"/><path d="M479.857 290.777c0 .367 0 .735-.02 1.102a35.879 35.879 0 0 0-8.817-1.102 35.512 35.512 0 0 0-26.859 12.225c-6.531-7.49-16.164-12.225-26.879-12.225a36.17 36.17 0 0 0-8.838 1.102c-.02-.367-.02-.735-.02-1.102 0-19.716 16.001-35.717 35.717-35.717 19.736 0 35.716 16.001 35.716 35.717Z"/><path d="M543.126 265.796c0 .367 0 .735-.02 1.102a35.873 35.873 0 0 0-8.817-1.102 35.512 35.512 0 0 0-26.859 12.225c-6.531-7.49-16.164-12.225-26.879-12.225-3.041 0-6.001.388-8.837 1.102-.021-.367-.021-.735-.021-1.102 0-19.716 16.001-35.717 35.717-35.717 19.736 0 35.716 16.001 35.716 35.717Z"/><path d="M479.857 240.794c0 .368 0 .735-.02 1.102a35.879 35.879 0 0 0-8.817-1.102 35.509 35.509 0 0 0-26.859 12.226c-6.531-7.491-16.164-12.226-26.879-12.226a36.17 36.17 0 0 0-8.838 1.102c-.02-.367-.02-.734-.02-1.102 0-19.715 16.001-35.716 35.717-35.716 19.736 0 35.716 16.001 35.716 35.716Z"/><path d="M543.126 215.813c0 .367 0 .735-.02 1.102a35.873 35.873 0 0 0-8.817-1.102 35.512 35.512 0 0 0-26.859 12.225c-6.531-7.49-16.164-12.225-26.879-12.225-3.041 0-6.001.388-8.837 1.102-.021-.367-.021-.735-.021-1.102 0-19.716 16.001-35.717 35.717-35.717 19.736 0 35.716 16.001 35.716 35.717ZM543.126 415.745c0 .367 0 .735-.02 1.102a35.873 35.873 0 0 0-8.817-1.102 35.512 35.512 0 0 0-26.859 12.225c-6.531-7.49-16.164-12.225-26.879-12.225-3.041 0-6.001.388-8.837 1.102-.021-.367-.021-.735-.021-1.102 0-19.716 16.001-35.717 35.717-35.717 19.736 0 35.716 16.001 35.716 35.717Z"/><path d="M479.857 390.743c0 .368 0 .735-.02 1.102a35.879 35.879 0 0 0-8.817-1.102 35.512 35.512 0 0 0-26.859 12.225c-6.531-7.49-16.164-12.225-26.879-12.225a36.17 36.17 0 0 0-8.838 1.102c-.02-.367-.02-.734-.02-1.102 0-19.715 16.001-35.717 35.717-35.717 19.736 0 35.716 16.002 35.716 35.717Z"/><path d="M543.126 365.762c0 .367 0 .735-.02 1.102a35.873 35.873 0 0 0-8.817-1.102 35.512 35.512 0 0 0-26.859 12.225c-6.531-7.49-16.164-12.225-26.879-12.225-3.041 0-6.001.388-8.837 1.102-.021-.367-.021-.735-.021-1.102 0-19.716 16.001-35.717 35.717-35.717 19.736 0 35.716 16.001 35.716 35.717Z"/><path d="M479.857 340.76c0 .368 0 .735-.02 1.102a35.879 35.879 0 0 0-8.817-1.102 35.509 35.509 0 0 0-26.859 12.226c-6.531-7.491-16.164-12.226-26.879-12.226a36.17 36.17 0 0 0-8.838 1.102c-.02-.367-.02-.734-.02-1.102 0-19.715 16.001-35.716 35.717-35.716 19.736 0 35.716 16.001 35.716 35.716Z"/><path d="M543.126 315.779c0 .367 0 .735-.02 1.102a35.873 35.873 0 0 0-8.817-1.102 35.512 35.512 0 0 0-26.859 12.225c-6.531-7.49-16.164-12.225-26.879-12.225-3.041 0-6.001.388-8.837 1.102-.021-.367-.021-.735-.021-1.102 0-19.716 16.001-35.717 35.717-35.717 19.736 0 35.716 16.001 35.716 35.717ZM543.127 515.711c0 .367 0 .734-.021 1.102a35.825 35.825 0 0 0-8.817-1.102 35.512 35.512 0 0 0-26.859 12.225c-6.531-7.49-16.164-12.225-26.879-12.225-3.041 0-6 .387-8.837 1.102-.021-.368-.021-.735-.021-1.102 0-19.716 16.001-35.717 35.717-35.717 19.736 0 35.717 16.001 35.717 35.717Z"/><path d="M479.857 490.709c0 .367 0 .735-.02 1.102a35.879 35.879 0 0 0-8.817-1.102 35.512 35.512 0 0 0-26.859 12.225c-6.531-7.49-16.164-12.225-26.879-12.225a36.17 36.17 0 0 0-8.838 1.102c-.02-.367-.02-.735-.02-1.102 0-19.716 16.001-35.717 35.717-35.717 19.736 0 35.716 16.001 35.716 35.717Z"/><path d="M543.127 465.728c0 .367 0 .734-.021 1.102a35.825 35.825 0 0 0-8.817-1.102 35.512 35.512 0 0 0-26.859 12.225c-6.531-7.49-16.164-12.225-26.879-12.225-3.041 0-6 .387-8.837 1.102-.021-.368-.021-.735-.021-1.102 0-19.716 16.001-35.717 35.717-35.717 19.736 0 35.717 16.001 35.717 35.717Z"/><path d="M479.857 440.726c0 .367 0 .735-.02 1.102a35.879 35.879 0 0 0-8.817-1.102 35.512 35.512 0 0 0-26.859 12.225c-6.531-7.49-16.164-12.225-26.879-12.225a36.17 36.17 0 0 0-8.838 1.102c-.02-.367-.02-.735-.02-1.102 0-19.716 16.001-35.717 35.717-35.717 19.736 0 35.716 16.001 35.716 35.717Z"/><path d="M543.127 415.745c0 .367 0 .734-.021 1.102a35.825 35.825 0 0 0-8.817-1.102 35.512 35.512 0 0 0-26.859 12.225c-6.531-7.49-16.164-12.225-26.879-12.225-3.041 0-6 .387-8.837 1.102-.021-.368-.021-.735-.021-1.102 0-19.716 16.001-35.717 35.717-35.717 19.736 0 35.717 16.001 35.717 35.717ZM479.857 90.846c0 .367 0 .734-.02 1.102a35.864 35.864 0 0 0-8.817-1.102 35.51 35.51 0 0 0-26.859 12.225c-6.531-7.49-16.164-12.225-26.879-12.225-3.041 0-6.001.387-8.838 1.102-.02-.368-.02-.735-.02-1.102 0-19.716 16.001-35.717 35.717-35.717 19.736 0 35.716 16 35.716 35.717Z"/><path d="M416.588 115.847c0 .368 0 .735-.021 1.102a35.873 35.873 0 0 0-8.817-1.102 35.512 35.512 0 0 0-26.859 12.225c-6.531-7.49-16.164-12.225-26.879-12.225-3.041 0-6 .388-8.837 1.102-.021-.367-.021-.734-.021-1.102 0-19.715 16.001-35.716 35.717-35.716 19.736 0 35.717 16 35.717 35.716Z"/><path d="M353.318 90.846c0 .367 0 .734-.02 1.102a35.864 35.864 0 0 0-8.817-1.102 35.51 35.51 0 0 0-26.859 12.225c-6.531-7.49-16.165-12.225-26.88-12.225-3.041 0-6 .387-8.837 1.102-.02-.368-.02-.735-.02-1.102 0-19.716 16.001-35.717 35.716-35.717 19.736 0 35.717 16 35.717 35.717ZM479.857 40.862c0 .368 0 .735-.02 1.103a35.864 35.864 0 0 0-8.817-1.103 35.51 35.51 0 0 0-26.859 12.226c-6.531-7.49-16.164-12.226-26.879-12.226-3.041 0-6.001.388-8.838 1.103-.02-.368-.02-.735-.02-1.103 0-19.715 16.001-35.716 35.717-35.716 19.736 0 35.716 16 35.716 35.716Z"/><path d="M416.588 65.864c0 .368 0 .735-.021 1.102a35.858 35.858 0 0 0-8.817-1.102 35.51 35.51 0 0 0-26.859 12.225c-6.531-7.49-16.164-12.225-26.879-12.225-3.041 0-6 .388-8.837 1.102-.021-.367-.021-.734-.021-1.102 0-19.715 16.001-35.716 35.717-35.716 19.736 0 35.717 16 35.717 35.716Z"/><path d="M353.318 40.862c0 .368 0 .735-.02 1.103a35.864 35.864 0 0 0-8.817-1.103 35.51 35.51 0 0 0-26.859 12.226c-6.531-7.49-16.165-12.226-26.88-12.226-3.041 0-6 .388-8.837 1.103-.02-.368-.02-.735-.02-1.103 0-19.715 16.001-35.716 35.716-35.716 19.736 0 35.717 16 35.717 35.716Z"/><path d="M416.588 15.881c0 .368 0 .735-.021 1.102a35.853 35.853 0 0 0-8.817-1.102 35.51 35.51 0 0 0-26.859 12.226c-6.531-7.49-16.164-12.226-26.879-12.226-3.041 0-6 .388-8.837 1.102-.021-.367-.021-.734-.021-1.102 0-19.715 16.001-35.716 35.717-35.716 19.736 0 35.717 16 35.717 35.716ZM479.857 190.811c0 .368 0 .735-.02 1.103a35.831 35.831 0 0 0-8.817-1.103 35.509 35.509 0 0 0-26.859 12.226c-6.531-7.491-16.164-12.226-26.879-12.226-3.041 0-6.001.388-8.838 1.103-.02-.368-.02-.735-.02-1.103 0-19.715 16.001-35.716 35.717-35.716 19.736 0 35.716 16.001 35.716 35.716Z"/><path d="M416.588 215.813c0 .367 0 .735-.021 1.102a35.873 35.873 0 0 0-8.817-1.102 35.512 35.512 0 0 0-26.859 12.225c-6.531-7.49-16.164-12.225-26.879-12.225-3.041 0-6 .388-8.837 1.102-.021-.367-.021-.735-.021-1.102 0-19.715 16.001-35.717 35.717-35.717 19.736 0 35.717 16.002 35.717 35.717Z"/><path d="M353.318 190.811c0 .368 0 .735-.02 1.103a35.831 35.831 0 0 0-8.817-1.103 35.509 35.509 0 0 0-26.859 12.226c-6.531-7.491-16.165-12.226-26.88-12.226-3.041 0-6 .388-8.837 1.103-.02-.368-.02-.735-.02-1.103 0-19.715 16.001-35.716 35.716-35.716 19.736 0 35.717 16.001 35.717 35.716ZM479.857 140.828c0 .368 0 .735-.02 1.103a35.831 35.831 0 0 0-8.817-1.103 35.509 35.509 0 0 0-26.859 12.226c-6.531-7.491-16.164-12.226-26.879-12.226-3.041 0-6.001.388-8.838 1.103-.02-.368-.02-.735-.02-1.103 0-19.715 16.001-35.716 35.717-35.716 19.736 0 35.716 16.001 35.716 35.716Z"/><path d="M416.588 165.83c0 .368 0 .735-.021 1.102a35.873 35.873 0 0 0-8.817-1.102 35.512 35.512 0 0 0-26.859 12.225c-6.531-7.49-16.164-12.225-26.879-12.225-3.041 0-6 .388-8.837 1.102-.021-.367-.021-.734-.021-1.102 0-19.715 16.001-35.716 35.717-35.716 19.736 0 35.717 16.001 35.717 35.716Z"/><path d="M353.318 140.828c0 .368 0 .735-.02 1.103a35.831 35.831 0 0 0-8.817-1.103 35.509 35.509 0 0 0-26.859 12.226c-6.531-7.491-16.165-12.226-26.88-12.226-3.041 0-6 .388-8.837 1.103-.02-.368-.02-.735-.02-1.103 0-19.715 16.001-35.716 35.716-35.716 19.736 0 35.717 16.001 35.717 35.716Z"/><path d="M416.588 115.847c0 .368 0 .735-.021 1.102a35.873 35.873 0 0 0-8.817-1.102 35.509 35.509 0 0 0-26.859 12.226c-6.531-7.491-16.164-12.226-26.879-12.226-3.041 0-6 .388-8.837 1.102-.021-.367-.021-.734-.021-1.102 0-19.715 16.001-35.716 35.717-35.716 19.736 0 35.717 16 35.717 35.716ZM479.857 290.777c0 .367 0 .735-.02 1.102a35.879 35.879 0 0 0-8.817-1.102 35.512 35.512 0 0 0-26.859 12.225c-6.531-7.49-16.164-12.225-26.879-12.225a36.17 36.17 0 0 0-8.838 1.102c-.02-.367-.02-.735-.02-1.102 0-19.716 16.001-35.717 35.717-35.717 19.736 0 35.716 16.001 35.716 35.717Z"/><path d="M416.588 315.779c0 .367 0 .735-.021 1.102a35.873 35.873 0 0 0-8.817-1.102 35.512 35.512 0 0 0-26.859 12.225c-6.531-7.49-16.164-12.225-26.879-12.225-3.041 0-6 .388-8.837 1.102-.021-.367-.021-.735-.021-1.102 0-19.716 16.001-35.717 35.717-35.717 19.736 0 35.717 16.001 35.717 35.717Z"/><path d="M353.318 290.777c0 .367 0 .735-.02 1.102a35.879 35.879 0 0 0-8.817-1.102 35.512 35.512 0 0 0-26.859 12.225c-6.531-7.49-16.165-12.225-26.88-12.225-3.041 0-6 .388-8.837 1.102-.02-.367-.02-.735-.02-1.102 0-19.716 16.001-35.717 35.716-35.717 19.736 0 35.717 16.001 35.717 35.717ZM479.857 240.794c0 .368 0 .735-.02 1.102a35.879 35.879 0 0 0-8.817-1.102 35.509 35.509 0 0 0-26.859 12.226c-6.531-7.491-16.164-12.226-26.879-12.226a36.17 36.17 0 0 0-8.838 1.102c-.02-.367-.02-.734-.02-1.102 0-19.715 16.001-35.716 35.717-35.716 19.736 0 35.716 16.001 35.716 35.716Z"/><path d="M416.588 265.796c0 .367 0 .735-.021 1.102a35.873 35.873 0 0 0-8.817-1.102 35.512 35.512 0 0 0-26.859 12.225c-6.531-7.49-16.164-12.225-26.879-12.225-3.041 0-6 .388-8.837 1.102-.021-.367-.021-.735-.021-1.102 0-19.716 16.001-35.717 35.717-35.717 19.736 0 35.717 16.001 35.717 35.717Z"/><path d="M353.318 240.794c0 .368 0 .735-.02 1.102a35.879 35.879 0 0 0-8.817-1.102 35.509 35.509 0 0 0-26.859 12.226c-6.531-7.491-16.165-12.226-26.88-12.226-3.041 0-6 .388-8.837 1.102-.02-.367-.02-.734-.02-1.102 0-19.715 16.001-35.716 35.716-35.716 19.736 0 35.717 16.001 35.717 35.716Z"/><path d="M416.588 215.813c0 .367 0 .735-.021 1.102a35.873 35.873 0 0 0-8.817-1.102 35.512 35.512 0 0 0-26.859 12.225c-6.531-7.49-16.164-12.225-26.879-12.225-3.041 0-6 .388-8.837 1.102-.021-.367-.021-.735-.021-1.102 0-19.716 16.001-35.717 35.717-35.717 19.736 0 35.717 16.001 35.717 35.717ZM479.857 390.743c0 .368 0 .735-.02 1.102a35.879 35.879 0 0 0-8.817-1.102 35.512 35.512 0 0 0-26.859 12.225c-6.531-7.49-16.164-12.225-26.879-12.225a36.17 36.17 0 0 0-8.838 1.102c-.02-.367-.02-.734-.02-1.102 0-19.715 16.001-35.717 35.717-35.717 19.736 0 35.716 16.002 35.716 35.717Z"/><path d="M416.588 415.745c0 .367 0 .735-.021 1.102a35.873 35.873 0 0 0-8.817-1.102 35.512 35.512 0 0 0-26.859 12.225c-6.531-7.49-16.164-12.225-26.879-12.225-3.041 0-6 .388-8.837 1.102-.021-.367-.021-.735-.021-1.102 0-19.716 16.001-35.717 35.717-35.717 19.736 0 35.717 16.001 35.717 35.717Z"/><path d="M353.318 390.743c0 .368 0 .735-.02 1.102a35.879 35.879 0 0 0-8.817-1.102 35.512 35.512 0 0 0-26.859 12.225c-6.531-7.49-16.165-12.225-26.88-12.225-3.041 0-6 .388-8.837 1.102-.02-.367-.02-.734-.02-1.102 0-19.715 16.001-35.717 35.716-35.717 19.736 0 35.717 16.002 35.717 35.717ZM479.857 340.76c0 .368 0 .735-.02 1.102a35.879 35.879 0 0 0-8.817-1.102 35.509 35.509 0 0 0-26.859 12.226c-6.531-7.491-16.164-12.226-26.879-12.226a36.17 36.17 0 0 0-8.838 1.102c-.02-.367-.02-.734-.02-1.102 0-19.715 16.001-35.716 35.717-35.716 19.736 0 35.716 16.001 35.716 35.716Z"/><path d="M416.588 365.762c0 .367 0 .735-.021 1.102a35.873 35.873 0 0 0-8.817-1.102 35.512 35.512 0 0 0-26.859 12.225c-6.531-7.49-16.164-12.225-26.879-12.225-3.041 0-6 .388-8.837 1.102-.021-.367-.021-.735-.021-1.102 0-19.716 16.001-35.717 35.717-35.717 19.736 0 35.717 16.001 35.717 35.717Z"/><path d="M353.318 340.76c0 .368 0 .735-.02 1.102a35.879 35.879 0 0 0-8.817-1.102 35.509 35.509 0 0 0-26.859 12.226c-6.531-7.491-16.165-12.226-26.88-12.226-3.041 0-6 .388-8.837 1.102-.02-.367-.02-.734-.02-1.102 0-19.715 16.001-35.716 35.716-35.716 19.736 0 35.717 16.001 35.717 35.716Z"/><path d="M416.588 315.779c0 .367 0 .735-.021 1.102a35.873 35.873 0 0 0-8.817-1.102 35.512 35.512 0 0 0-26.859 12.225c-6.531-7.49-16.164-12.225-26.879-12.225-3.041 0-6 .388-8.837 1.102-.021-.367-.021-.735-.021-1.102 0-19.716 16.001-35.717 35.717-35.717 19.736 0 35.717 16.001 35.717 35.717ZM479.857 490.709c0 .367 0 .735-.02 1.102a35.879 35.879 0 0 0-8.817-1.102 35.512 35.512 0 0 0-26.859 12.225c-6.531-7.49-16.164-12.225-26.879-12.225a36.17 36.17 0 0 0-8.838 1.102c-.02-.367-.02-.735-.02-1.102 0-19.716 16.001-35.717 35.717-35.717 19.736 0 35.716 16.001 35.716 35.717Z"/><path d="M416.588 515.711c0 .367 0 .734-.021 1.102a35.825 35.825 0 0 0-8.817-1.102 35.512 35.512 0 0 0-26.859 12.225c-6.531-7.49-16.164-12.225-26.879-12.225-3.041 0-6 .387-8.837 1.102-.021-.368-.021-.735-.021-1.102 0-19.716 16.001-35.717 35.717-35.717 19.736 0 35.717 16.001 35.717 35.717Z"/><path d="M353.318 490.709c0 .367 0 .735-.02 1.102a35.879 35.879 0 0 0-8.817-1.102 35.512 35.512 0 0 0-26.859 12.225c-6.531-7.49-16.165-12.225-26.88-12.225-3.041 0-6 .388-8.837 1.102-.02-.367-.02-.735-.02-1.102 0-19.716 16.001-35.717 35.716-35.717 19.736 0 35.717 16.001 35.717 35.717ZM479.857 440.726c0 .367 0 .735-.02 1.102a35.879 35.879 0 0 0-8.817-1.102 35.512 35.512 0 0 0-26.859 12.225c-6.531-7.49-16.164-12.225-26.879-12.225a36.17 36.17 0 0 0-8.838 1.102c-.02-.367-.02-.735-.02-1.102 0-19.716 16.001-35.717 35.717-35.717 19.736 0 35.716 16.001 35.716 35.717Z"/><path d="M416.588 465.728c0 .367 0 .734-.021 1.102a35.825 35.825 0 0 0-8.817-1.102 35.512 35.512 0 0 0-26.859 12.225c-6.531-7.49-16.164-12.225-26.879-12.225-3.041 0-6 .387-8.837 1.102-.021-.368-.021-.735-.021-1.102 0-19.716 16.001-35.717 35.717-35.717 19.736 0 35.717 16.001 35.717 35.717Z"/><path d="M353.318 440.726c0 .367 0 .735-.02 1.102a35.879 35.879 0 0 0-8.817-1.102 35.512 35.512 0 0 0-26.859 12.225c-6.531-7.49-16.165-12.225-26.88-12.225-3.041 0-6 .388-8.837 1.102-.02-.367-.02-.735-.02-1.102 0-19.716 16.001-35.717 35.716-35.717 19.736 0 35.717 16.001 35.717 35.717Z"/><path d="M416.588 415.745c0 .367 0 .734-.021 1.102a35.825 35.825 0 0 0-8.817-1.102 35.512 35.512 0 0 0-26.859 12.225c-6.531-7.49-16.164-12.225-26.879-12.225-3.041 0-6 .387-8.837 1.102-.021-.368-.021-.735-.021-1.102 0-19.716 16.001-35.717 35.717-35.717 19.736 0 35.717 16.001 35.717 35.717ZM353.318 90.846c0 .367 0 .734-.02 1.102a35.864 35.864 0 0 0-8.817-1.102 35.51 35.51 0 0 0-26.859 12.225c-6.531-7.49-16.165-12.225-26.88-12.225-3.041 0-6 .387-8.837 1.102-.02-.368-.02-.735-.02-1.102 0-19.716 16.001-35.717 35.716-35.717 19.736 0 35.717 16 35.717 35.717Z"/><path d="M290.049 115.847c0 .368 0 .735-.021 1.102a35.873 35.873 0 0 0-8.817-1.102 35.512 35.512 0 0 0-26.859 12.225c-6.531-7.49-16.164-12.225-26.879-12.225-3.041 0-6 .388-8.837 1.102-.021-.367-.021-.734-.021-1.102 0-19.715 16.001-35.716 35.717-35.716 19.736 0 35.717 16 35.717 35.716Z"/><path d="M226.779 90.846c0 .367 0 .734-.02 1.102a35.864 35.864 0 0 0-8.817-1.102 35.508 35.508 0 0 0-26.859 12.225c-6.531-7.49-16.165-12.225-26.88-12.225-3.041 0-6 .387-8.837 1.102-.02-.368-.02-.735-.02-1.102 0-19.716 16.001-35.717 35.716-35.717 19.736 0 35.717 16 35.717 35.717ZM353.318 40.862c0 .368 0 .735-.02 1.103a35.864 35.864 0 0 0-8.817-1.103 35.51 35.51 0 0 0-26.859 12.226c-6.531-7.49-16.165-12.226-26.88-12.226-3.041 0-6 .388-8.837 1.103-.02-.368-.02-.735-.02-1.103 0-19.715 16.001-35.716 35.716-35.716 19.736 0 35.717 16 35.717 35.716Z"/><path d="M290.049 65.864c0 .368 0 .735-.021 1.102a35.858 35.858 0 0 0-8.817-1.102 35.51 35.51 0 0 0-26.859 12.225c-6.531-7.49-16.164-12.225-26.879-12.225-3.041 0-6 .388-8.837 1.102-.021-.367-.021-.734-.021-1.102 0-19.715 16.001-35.716 35.717-35.716 19.736 0 35.717 16 35.717 35.716Z"/><path d="M226.779 40.862c0 .368 0 .735-.02 1.103a35.864 35.864 0 0 0-8.817-1.103 35.51 35.51 0 0 0-26.859 12.226c-6.531-7.49-16.165-12.226-26.88-12.226-3.041 0-6 .388-8.837 1.103-.02-.368-.02-.735-.02-1.103 0-19.715 16.001-35.716 35.716-35.716 19.736 0 35.717 16 35.717 35.716Z"/><path d="M290.049 15.881c0 .368 0 .735-.021 1.102a35.853 35.853 0 0 0-8.817-1.102 35.51 35.51 0 0 0-26.859 12.226c-6.531-7.49-16.164-12.226-26.879-12.226-3.041 0-6 .388-8.837 1.102-.021-.367-.021-.734-.021-1.102 0-19.715 16.001-35.716 35.717-35.716 19.736 0 35.717 16 35.717 35.716ZM353.318 190.811c0 .368 0 .735-.02 1.103a35.831 35.831 0 0 0-8.817-1.103 35.509 35.509 0 0 0-26.859 12.226c-6.531-7.491-16.165-12.226-26.88-12.226-3.041 0-6 .388-8.837 1.103-.02-.368-.02-.735-.02-1.103 0-19.715 16.001-35.716 35.716-35.716 19.736 0 35.717 16.001 35.717 35.716Z"/><path d="M290.049 215.813c0 .367 0 .735-.021 1.102a35.873 35.873 0 0 0-8.817-1.102 35.512 35.512 0 0 0-26.859 12.225c-6.531-7.49-16.164-12.225-26.879-12.225-3.041 0-6 .388-8.837 1.102-.021-.367-.021-.735-.021-1.102 0-19.715 16.001-35.717 35.717-35.717 19.736 0 35.717 16.002 35.717 35.717Z"/><path d="M226.779 190.811c0 .368 0 .735-.02 1.103a35.831 35.831 0 0 0-8.817-1.103 35.507 35.507 0 0 0-26.859 12.226c-6.531-7.491-16.165-12.226-26.88-12.226-3.041 0-6 .388-8.837 1.103-.02-.368-.02-.735-.02-1.103 0-19.715 16.001-35.716 35.716-35.716 19.736 0 35.717 16.001 35.717 35.716ZM353.318 140.828c0 .368 0 .735-.02 1.103a35.831 35.831 0 0 0-8.817-1.103 35.509 35.509 0 0 0-26.859 12.226c-6.531-7.491-16.165-12.226-26.88-12.226-3.041 0-6 .388-8.837 1.103-.02-.368-.02-.735-.02-1.103 0-19.715 16.001-35.716 35.716-35.716 19.736 0 35.717 16.001 35.717 35.716Z"/><path d="M290.049 165.83c0 .368 0 .735-.021 1.102a35.873 35.873 0 0 0-8.817-1.102 35.512 35.512 0 0 0-26.859 12.225c-6.531-7.49-16.164-12.225-26.879-12.225-3.041 0-6 .388-8.837 1.102-.021-.367-.021-.734-.021-1.102 0-19.715 16.001-35.716 35.717-35.716 19.736 0 35.717 16.001 35.717 35.716Z"/><path d="M226.779 140.828c0 .368 0 .735-.02 1.103a35.831 35.831 0 0 0-8.817-1.103 35.507 35.507 0 0 0-26.859 12.226c-6.531-7.491-16.165-12.226-26.88-12.226-3.041 0-6 .388-8.837 1.103-.02-.368-.02-.735-.02-1.103 0-19.715 16.001-35.716 35.716-35.716 19.736 0 35.717 16.001 35.717 35.716Z"/><path d="M290.049 115.847c0 .368 0 .735-.021 1.102a35.873 35.873 0 0 0-8.817-1.102 35.509 35.509 0 0 0-26.859 12.226c-6.531-7.491-16.164-12.226-26.879-12.226-3.041 0-6 .388-8.837 1.102-.021-.367-.021-.734-.021-1.102 0-19.715 16.001-35.716 35.717-35.716 19.736 0 35.717 16 35.717 35.716ZM353.318 290.777c0 .367 0 .735-.02 1.102a35.879 35.879 0 0 0-8.817-1.102 35.512 35.512 0 0 0-26.859 12.225c-6.531-7.49-16.165-12.225-26.88-12.225-3.041 0-6 .388-8.837 1.102-.02-.367-.02-.735-.02-1.102 0-19.716 16.001-35.717 35.716-35.717 19.736 0 35.717 16.001 35.717 35.717Z"/><path d="M290.049 315.779c0 .367 0 .735-.021 1.102a35.873 35.873 0 0 0-8.817-1.102 35.512 35.512 0 0 0-26.859 12.225c-6.531-7.49-16.164-12.225-26.879-12.225-3.041 0-6 .388-8.837 1.102-.021-.367-.021-.735-.021-1.102 0-19.716 16.001-35.717 35.717-35.717 19.736 0 35.717 16.001 35.717 35.717Z"/><path d="M226.779 290.777c0 .367 0 .735-.02 1.102a35.879 35.879 0 0 0-8.817-1.102 35.51 35.51 0 0 0-26.859 12.225c-6.531-7.49-16.165-12.225-26.88-12.225-3.041 0-6 .388-8.837 1.102-.02-.367-.02-.735-.02-1.102 0-19.716 16.001-35.717 35.716-35.717 19.736 0 35.717 16.001 35.717 35.717ZM353.318 240.794c0 .368 0 .735-.02 1.102a35.879 35.879 0 0 0-8.817-1.102 35.509 35.509 0 0 0-26.859 12.226c-6.531-7.491-16.165-12.226-26.88-12.226-3.041 0-6 .388-8.837 1.102-.02-.367-.02-.734-.02-1.102 0-19.715 16.001-35.716 35.716-35.716 19.736 0 35.717 16.001 35.717 35.716Z"/><path d="M290.049 265.796c0 .367 0 .735-.021 1.102a35.873 35.873 0 0 0-8.817-1.102 35.512 35.512 0 0 0-26.859 12.225c-6.531-7.49-16.164-12.225-26.879-12.225-3.041 0-6 .388-8.837 1.102-.021-.367-.021-.735-.021-1.102 0-19.716 16.001-35.717 35.717-35.717 19.736 0 35.717 16.001 35.717 35.717Z"/><path d="M226.779 240.794c0 .368 0 .735-.02 1.102a35.879 35.879 0 0 0-8.817-1.102 35.507 35.507 0 0 0-26.859 12.226c-6.531-7.491-16.165-12.226-26.88-12.226-3.041 0-6 .388-8.837 1.102-.02-.367-.02-.734-.02-1.102 0-19.715 16.001-35.716 35.716-35.716 19.736 0 35.717 16.001 35.717 35.716Z"/><path d="M290.049 215.813c0 .367 0 .735-.021 1.102a35.873 35.873 0 0 0-8.817-1.102 35.512 35.512 0 0 0-26.859 12.225c-6.531-7.49-16.164-12.225-26.879-12.225-3.041 0-6 .388-8.837 1.102-.021-.367-.021-.735-.021-1.102 0-19.716 16.001-35.717 35.717-35.717 19.736 0 35.717 16.001 35.717 35.717ZM353.318 390.743c0 .368 0 .735-.02 1.102a35.879 35.879 0 0 0-8.817-1.102 35.512 35.512 0 0 0-26.859 12.225c-6.531-7.49-16.165-12.225-26.88-12.225-3.041 0-6 .388-8.837 1.102-.02-.367-.02-.734-.02-1.102 0-19.715 16.001-35.717 35.716-35.717 19.736 0 35.717 16.002 35.717 35.717Z"/><path d="M290.049 415.745c0 .367 0 .735-.021 1.102a35.873 35.873 0 0 0-8.817-1.102 35.512 35.512 0 0 0-26.859 12.225c-6.531-7.49-16.164-12.225-26.879-12.225-3.041 0-6 .388-8.837 1.102-.021-.367-.021-.735-.021-1.102 0-19.716 16.001-35.717 35.717-35.717 19.736 0 35.717 16.001 35.717 35.717Z"/><path d="M226.779 390.743c0 .368 0 .735-.02 1.102a35.879 35.879 0 0 0-8.817-1.102 35.51 35.51 0 0 0-26.859 12.225c-6.531-7.49-16.165-12.225-26.88-12.225-3.041 0-6 .388-8.837 1.102-.02-.367-.02-.734-.02-1.102 0-19.715 16.001-35.717 35.716-35.717 19.736 0 35.717 16.002 35.717 35.717ZM353.318 340.76c0 .368 0 .735-.02 1.102a35.879 35.879 0 0 0-8.817-1.102 35.509 35.509 0 0 0-26.859 12.226c-6.531-7.491-16.165-12.226-26.88-12.226-3.041 0-6 .388-8.837 1.102-.02-.367-.02-.734-.02-1.102 0-19.715 16.001-35.716 35.716-35.716 19.736 0 35.717 16.001 35.717 35.716Z"/><path d="M290.049 365.762c0 .367 0 .735-.021 1.102a35.873 35.873 0 0 0-8.817-1.102 35.512 35.512 0 0 0-26.859 12.225c-6.531-7.49-16.164-12.225-26.879-12.225-3.041 0-6 .388-8.837 1.102-.021-.367-.021-.735-.021-1.102 0-19.716 16.001-35.717 35.717-35.717 19.736 0 35.717 16.001 35.717 35.717Z"/><path d="M226.779 340.76c0 .368 0 .735-.02 1.102a35.879 35.879 0 0 0-8.817-1.102 35.507 35.507 0 0 0-26.859 12.226c-6.531-7.491-16.165-12.226-26.88-12.226-3.041 0-6 .388-8.837 1.102-.02-.367-.02-.734-.02-1.102 0-19.715 16.001-35.716 35.716-35.716 19.736 0 35.717 16.001 35.717 35.716Z"/><path d="M290.049 315.779c0 .367 0 .735-.021 1.102a35.873 35.873 0 0 0-8.817-1.102 35.512 35.512 0 0 0-26.859 12.225c-6.531-7.49-16.164-12.225-26.879-12.225-3.041 0-6 .388-8.837 1.102-.021-.367-.021-.735-.021-1.102 0-19.716 16.001-35.717 35.717-35.717 19.736 0 35.717 16.001 35.717 35.717ZM353.318 490.709c0 .367 0 .735-.02 1.102a35.879 35.879 0 0 0-8.817-1.102 35.512 35.512 0 0 0-26.859 12.225c-6.531-7.49-16.165-12.225-26.88-12.225-3.041 0-6 .388-8.837 1.102-.02-.367-.02-.735-.02-1.102 0-19.716 16.001-35.717 35.716-35.717 19.736 0 35.717 16.001 35.717 35.717Z"/><path d="M290.049 515.711c0 .367 0 .734-.021 1.102a35.825 35.825 0 0 0-8.817-1.102 35.512 35.512 0 0 0-26.859 12.225c-6.531-7.49-16.164-12.225-26.879-12.225-3.041 0-6 .387-8.837 1.102-.021-.368-.021-.735-.021-1.102 0-19.716 16.001-35.717 35.717-35.717 19.736 0 35.717 16.001 35.717 35.717Z"/><path d="M226.779 490.709c0 .367 0 .735-.02 1.102a35.879 35.879 0 0 0-8.817-1.102 35.51 35.51 0 0 0-26.859 12.225c-6.531-7.49-16.165-12.225-26.88-12.225-3.041 0-6 .388-8.837 1.102-.02-.367-.02-.735-.02-1.102 0-19.716 16.001-35.717 35.716-35.717 19.736 0 35.717 16.001 35.717 35.717ZM353.318 440.726c0 .367 0 .735-.02 1.102a35.879 35.879 0 0 0-8.817-1.102 35.512 35.512 0 0 0-26.859 12.225c-6.531-7.49-16.165-12.225-26.88-12.225-3.041 0-6 .388-8.837 1.102-.02-.367-.02-.735-.02-1.102 0-19.716 16.001-35.717 35.716-35.717 19.736 0 35.717 16.001 35.717 35.717Z"/><path d="M290.049 465.728c0 .367 0 .734-.021 1.102a35.825 35.825 0 0 0-8.817-1.102 35.512 35.512 0 0 0-26.859 12.225c-6.531-7.49-16.164-12.225-26.879-12.225-3.041 0-6 .387-8.837 1.102-.021-.368-.021-.735-.021-1.102 0-19.716 16.001-35.717 35.717-35.717 19.736 0 35.717 16.001 35.717 35.717Z"/><path d="M226.779 440.726c0 .367 0 .735-.02 1.102a35.879 35.879 0 0 0-8.817-1.102 35.51 35.51 0 0 0-26.859 12.225c-6.531-7.49-16.165-12.225-26.88-12.225-3.041 0-6 .388-8.837 1.102-.02-.367-.02-.735-.02-1.102 0-19.716 16.001-35.717 35.716-35.717 19.736 0 35.717 16.001 35.717 35.717Z"/><path d="M290.049 415.745c0 .367 0 .734-.021 1.102a35.825 35.825 0 0 0-8.817-1.102 35.512 35.512 0 0 0-26.859 12.225c-6.531-7.49-16.164-12.225-26.879-12.225-3.041 0-6 .387-8.837 1.102-.021-.368-.021-.735-.021-1.102 0-19.716 16.001-35.717 35.717-35.717 19.736 0 35.717 16.001 35.717 35.717ZM226.779 90.846c0 .367 0 .734-.02 1.102a35.864 35.864 0 0 0-8.817-1.102 35.508 35.508 0 0 0-26.859 12.225c-6.531-7.49-16.165-12.225-26.88-12.225-3.041 0-6 .387-8.837 1.102-.02-.368-.02-.735-.02-1.102 0-19.716 16.001-35.717 35.716-35.717 19.736 0 35.717 16 35.717 35.717Z"/><path d="M163.51 115.847c0 .368 0 .735-.021 1.102a35.873 35.873 0 0 0-8.817-1.102 35.512 35.512 0 0 0-26.859 12.225c-6.531-7.49-16.164-12.225-26.879-12.225-3.041 0-6 .388-8.837 1.102-.02-.367-.02-.734-.02-1.102 0-19.715 16-35.716 35.716-35.716 19.736 0 35.717 16 35.717 35.716Z"/><path d="M100.24 90.846c0 .367 0 .734-.02 1.102a35.866 35.866 0 0 0-8.817-1.102 35.51 35.51 0 0 0-26.86 12.225c-6.53-7.49-16.164-12.225-26.879-12.225-3.04 0-6 .387-8.837 1.102-.02-.368-.02-.735-.02-1.102 0-19.716 16-35.717 35.716-35.717 19.736 0 35.717 16 35.717 35.717ZM226.779 40.862c0 .368 0 .735-.02 1.103a35.864 35.864 0 0 0-8.817-1.103 35.51 35.51 0 0 0-26.859 12.226c-6.531-7.49-16.165-12.226-26.88-12.226-3.041 0-6 .388-8.837 1.103-.02-.368-.02-.735-.02-1.103 0-19.715 16.001-35.716 35.716-35.716 19.736 0 35.717 16 35.717 35.716Z"/><path d="M163.51 65.864c0 .368 0 .735-.021 1.102a35.858 35.858 0 0 0-8.817-1.102 35.51 35.51 0 0 0-26.859 12.225c-6.531-7.49-16.164-12.225-26.879-12.225-3.041 0-6 .388-8.837 1.102-.02-.367-.02-.734-.02-1.102 0-19.715 16-35.716 35.716-35.716 19.736 0 35.717 16 35.717 35.716Z"/><path d="M100.24 40.862c0 .368 0 .735-.02 1.103a35.866 35.866 0 0 0-8.817-1.103 35.51 35.51 0 0 0-26.86 12.226c-6.53-7.49-16.164-12.226-26.879-12.226-3.04 0-6 .388-8.837 1.103-.02-.368-.02-.735-.02-1.103 0-19.715 16-35.716 35.716-35.716 19.736 0 35.717 16 35.717 35.716Z"/><path d="M163.51 15.881c0 .368 0 .735-.021 1.102a35.853 35.853 0 0 0-8.817-1.102 35.51 35.51 0 0 0-26.859 12.226c-6.531-7.49-16.164-12.226-26.879-12.226-3.041 0-6 .388-8.837 1.102-.02-.367-.02-.734-.02-1.102 0-19.715 16-35.716 35.716-35.716 19.736 0 35.717 16 35.717 35.716ZM226.779 190.811c0 .368 0 .735-.02 1.103a35.831 35.831 0 0 0-8.817-1.103 35.507 35.507 0 0 0-26.859 12.226c-6.531-7.491-16.165-12.226-26.88-12.226-3.041 0-6 .388-8.837 1.103-.02-.368-.02-.735-.02-1.103 0-19.715 16.001-35.716 35.716-35.716 19.736 0 35.717 16.001 35.717 35.716Z"/><path d="M163.51 215.813c0 .367 0 .735-.021 1.102a35.873 35.873 0 0 0-8.817-1.102 35.512 35.512 0 0 0-26.859 12.225c-6.531-7.49-16.164-12.225-26.879-12.225-3.041 0-6 .388-8.837 1.102-.02-.367-.02-.735-.02-1.102 0-19.715 16-35.717 35.716-35.717 19.736 0 35.717 16.002 35.717 35.717Z"/><path d="M100.24 190.811c0 .368 0 .735-.02 1.103a35.833 35.833 0 0 0-8.817-1.103 35.509 35.509 0 0 0-26.86 12.226c-6.53-7.491-16.164-12.226-26.879-12.226-3.04 0-6 .388-8.837 1.103-.02-.368-.02-.735-.02-1.103 0-19.715 16-35.716 35.716-35.716 19.736 0 35.717 16.001 35.717 35.716ZM226.779 140.828c0 .368 0 .735-.02 1.103a35.831 35.831 0 0 0-8.817-1.103 35.507 35.507 0 0 0-26.859 12.226c-6.531-7.491-16.165-12.226-26.88-12.226-3.041 0-6 .388-8.837 1.103-.02-.368-.02-.735-.02-1.103 0-19.715 16.001-35.716 35.716-35.716 19.736 0 35.717 16.001 35.717 35.716Z"/><path d="M163.51 165.83c0 .368 0 .735-.021 1.102a35.873 35.873 0 0 0-8.817-1.102 35.512 35.512 0 0 0-26.859 12.225c-6.531-7.49-16.164-12.225-26.879-12.225-3.041 0-6 .388-8.837 1.102-.02-.367-.02-.734-.02-1.102 0-19.715 16-35.716 35.716-35.716 19.736 0 35.717 16.001 35.717 35.716Z"/><path d="M100.24 140.828c0 .368 0 .735-.02 1.103a35.833 35.833 0 0 0-8.817-1.103 35.509 35.509 0 0 0-26.86 12.226c-6.53-7.491-16.164-12.226-26.879-12.226-3.04 0-6 .388-8.837 1.103-.02-.368-.02-.735-.02-1.103 0-19.715 16-35.716 35.716-35.716 19.736 0 35.717 16.001 35.717 35.716Z"/><path d="M163.51 115.847c0 .368 0 .735-.021 1.102a35.873 35.873 0 0 0-8.817-1.102 35.509 35.509 0 0 0-26.859 12.226c-6.531-7.491-16.164-12.226-26.879-12.226-3.041 0-6 .388-8.837 1.102-.02-.367-.02-.734-.02-1.102 0-19.715 16-35.716 35.716-35.716 19.736 0 35.717 16 35.717 35.716ZM226.779 290.777c0 .367 0 .735-.02 1.102a35.879 35.879 0 0 0-8.817-1.102 35.51 35.51 0 0 0-26.859 12.225c-6.531-7.49-16.165-12.225-26.88-12.225-3.041 0-6 .388-8.837 1.102-.02-.367-.02-.735-.02-1.102 0-19.716 16.001-35.717 35.716-35.717 19.736 0 35.717 16.001 35.717 35.717Z"/><path d="M163.51 315.779c0 .367 0 .735-.021 1.102a35.873 35.873 0 0 0-8.817-1.102 35.512 35.512 0 0 0-26.859 12.225c-6.531-7.49-16.164-12.225-26.879-12.225-3.041 0-6 .388-8.837 1.102-.02-.367-.02-.735-.02-1.102 0-19.716 16-35.717 35.716-35.717 19.736 0 35.717 16.001 35.717 35.717Z"/><path d="M100.24 290.777c0 .367 0 .735-.02 1.102a35.88 35.88 0 0 0-8.817-1.102 35.511 35.511 0 0 0-26.86 12.225c-6.53-7.49-16.164-12.225-26.879-12.225-3.04 0-6 .388-8.837 1.102-.02-.367-.02-.735-.02-1.102 0-19.716 16-35.717 35.716-35.717 19.736 0 35.717 16.001 35.717 35.717ZM226.779 240.794c0 .368 0 .735-.02 1.102a35.879 35.879 0 0 0-8.817-1.102 35.507 35.507 0 0 0-26.859 12.226c-6.531-7.491-16.165-12.226-26.88-12.226-3.041 0-6 .388-8.837 1.102-.02-.367-.02-.734-.02-1.102 0-19.715 16.001-35.716 35.716-35.716 19.736 0 35.717 16.001 35.717 35.716Z"/><path d="M163.51 265.796c0 .367 0 .735-.021 1.102a35.873 35.873 0 0 0-8.817-1.102 35.512 35.512 0 0 0-26.859 12.225c-6.531-7.49-16.164-12.225-26.879-12.225-3.041 0-6 .388-8.837 1.102-.02-.367-.02-.735-.02-1.102 0-19.716 16-35.717 35.716-35.717 19.736 0 35.717 16.001 35.717 35.717Z"/><path d="M100.24 240.794c0 .368 0 .735-.02 1.102a35.88 35.88 0 0 0-8.817-1.102 35.509 35.509 0 0 0-26.86 12.226c-6.53-7.491-16.164-12.226-26.879-12.226-3.04 0-6 .388-8.837 1.102-.02-.367-.02-.734-.02-1.102 0-19.715 16-35.716 35.716-35.716 19.736 0 35.717 16.001 35.717 35.716Z"/><path d="M163.51 215.813c0 .367 0 .735-.021 1.102a35.873 35.873 0 0 0-8.817-1.102 35.512 35.512 0 0 0-26.859 12.225c-6.531-7.49-16.164-12.225-26.879-12.225-3.041 0-6 .388-8.837 1.102-.02-.367-.02-.735-.02-1.102 0-19.716 16-35.717 35.716-35.717 19.736 0 35.717 16.001 35.717 35.717ZM226.779 390.743c0 .368 0 .735-.02 1.102a35.879 35.879 0 0 0-8.817-1.102 35.51 35.51 0 0 0-26.859 12.225c-6.531-7.49-16.165-12.225-26.88-12.225-3.041 0-6 .388-8.837 1.102-.02-.367-.02-.734-.02-1.102 0-19.715 16.001-35.717 35.716-35.717 19.736 0 35.717 16.002 35.717 35.717Z"/><path d="M163.51 415.745c0 .367 0 .735-.021 1.102a35.873 35.873 0 0 0-8.817-1.102 35.512 35.512 0 0 0-26.859 12.225c-6.531-7.49-16.164-12.225-26.879-12.225-3.041 0-6 .388-8.837 1.102-.02-.367-.02-.735-.02-1.102 0-19.716 16-35.717 35.716-35.717 19.736 0 35.717 16.001 35.717 35.717Z"/><path d="M100.24 390.743c0 .368 0 .735-.02 1.102a35.88 35.88 0 0 0-8.817-1.102 35.511 35.511 0 0 0-26.86 12.225c-6.53-7.49-16.164-12.225-26.879-12.225-3.04 0-6 .388-8.837 1.102-.02-.367-.02-.734-.02-1.102 0-19.715 16-35.717 35.716-35.717 19.736 0 35.717 16.002 35.717 35.717ZM226.779 340.76c0 .368 0 .735-.02 1.102a35.879 35.879 0 0 0-8.817-1.102 35.507 35.507 0 0 0-26.859 12.226c-6.531-7.491-16.165-12.226-26.88-12.226-3.041 0-6 .388-8.837 1.102-.02-.367-.02-.734-.02-1.102 0-19.715 16.001-35.716 35.716-35.716 19.736 0 35.717 16.001 35.717 35.716Z"/><path d="M163.51 365.762c0 .367 0 .735-.021 1.102a35.873 35.873 0 0 0-8.817-1.102 35.512 35.512 0 0 0-26.859 12.225c-6.531-7.49-16.164-12.225-26.879-12.225-3.041 0-6 .388-8.837 1.102-.02-.367-.02-.735-.02-1.102 0-19.716 16-35.717 35.716-35.717 19.736 0 35.717 16.001 35.717 35.717Z"/><path d="M100.24 340.76c0 .368 0 .735-.02 1.102a35.88 35.88 0 0 0-8.817-1.102 35.509 35.509 0 0 0-26.86 12.226c-6.53-7.491-16.164-12.226-26.879-12.226-3.04 0-6 .388-8.837 1.102-.02-.367-.02-.734-.02-1.102 0-19.715 16-35.716 35.716-35.716 19.736 0 35.717 16.001 35.717 35.716Z"/><path d="M163.51 315.779c0 .367 0 .735-.021 1.102a35.873 35.873 0 0 0-8.817-1.102 35.512 35.512 0 0 0-26.859 12.225c-6.531-7.49-16.164-12.225-26.879-12.225-3.041 0-6 .388-8.837 1.102-.02-.367-.02-.735-.02-1.102 0-19.716 16-35.717 35.716-35.717 19.736 0 35.717 16.001 35.717 35.717ZM226.779 490.709c0 .367 0 .735-.02 1.102a35.879 35.879 0 0 0-8.817-1.102 35.51 35.51 0 0 0-26.859 12.225c-6.531-7.49-16.165-12.225-26.88-12.225-3.041 0-6 .388-8.837 1.102-.02-.367-.02-.735-.02-1.102 0-19.716 16.001-35.717 35.716-35.717 19.736 0 35.717 16.001 35.717 35.717Z"/><path d="M163.51 515.711c0 .367 0 .734-.021 1.102a35.825 35.825 0 0 0-8.817-1.102 35.512 35.512 0 0 0-26.859 12.225c-6.531-7.49-16.164-12.225-26.879-12.225-3.041 0-6 .387-8.837 1.102-.02-.368-.02-.735-.02-1.102 0-19.716 16-35.717 35.716-35.717 19.736 0 35.717 16.001 35.717 35.717Z"/><path d="M100.24 490.709c0 .367 0 .735-.02 1.102a35.88 35.88 0 0 0-8.817-1.102 35.511 35.511 0 0 0-26.86 12.225c-6.53-7.49-16.164-12.225-26.879-12.225-3.04 0-6 .388-8.837 1.102-.02-.367-.02-.735-.02-1.102 0-19.716 16-35.717 35.716-35.717 19.736 0 35.717 16.001 35.717 35.717ZM226.779 440.726c0 .367 0 .735-.02 1.102a35.879 35.879 0 0 0-8.817-1.102 35.51 35.51 0 0 0-26.859 12.225c-6.531-7.49-16.165-12.225-26.88-12.225-3.041 0-6 .388-8.837 1.102-.02-.367-.02-.735-.02-1.102 0-19.716 16.001-35.717 35.716-35.717 19.736 0 35.717 16.001 35.717 35.717Z"/><path d="M163.51 465.728c0 .367 0 .734-.021 1.102a35.825 35.825 0 0 0-8.817-1.102 35.512 35.512 0 0 0-26.859 12.225c-6.531-7.49-16.164-12.225-26.879-12.225-3.041 0-6 .387-8.837 1.102-.02-.368-.02-.735-.02-1.102 0-19.716 16-35.717 35.716-35.717 19.736 0 35.717 16.001 35.717 35.717Z"/><path d="M100.24 440.726c0 .367 0 .735-.02 1.102a35.88 35.88 0 0 0-8.817-1.102 35.511 35.511 0 0 0-26.86 12.225c-6.53-7.49-16.164-12.225-26.879-12.225-3.04 0-6 .388-8.837 1.102-.02-.367-.02-.735-.02-1.102 0-19.716 16-35.717 35.716-35.717 19.736 0 35.717 16.001 35.717 35.717Z"/><path d="M163.51 415.745c0 .367 0 .734-.021 1.102a35.825 35.825 0 0 0-8.817-1.102 35.512 35.512 0 0 0-26.859 12.225c-6.531-7.49-16.164-12.225-26.879-12.225-3.041 0-6 .387-8.837 1.102-.02-.368-.02-.735-.02-1.102 0-19.716 16-35.717 35.716-35.717 19.736 0 35.717 16.001 35.717 35.717ZM100.24 90.846c0 .367 0 .734-.02 1.102a35.866 35.866 0 0 0-8.817-1.102 35.51 35.51 0 0 0-26.86 12.225c-6.53-7.49-16.164-12.225-26.879-12.225-3.04 0-6 .387-8.837 1.102-.02-.368-.02-.735-.02-1.102 0-19.716 16-35.717 35.716-35.717 19.736 0 35.717 16 35.717 35.717Z"/><path d="M36.97 115.847c0 .368 0 .735-.02 1.102a35.874 35.874 0 0 0-8.817-1.102 35.51 35.51 0 0 0-26.859 12.225c-6.53-7.49-16.164-12.225-26.88-12.225-3.04 0-6 .388-8.837 1.102-.02-.367-.02-.734-.02-1.102 0-19.715 16.001-35.716 35.717-35.716 19.736 0 35.716 16 35.716 35.716ZM100.24 40.862c0 .368 0 .735-.02 1.103a35.866 35.866 0 0 0-8.817-1.103 35.51 35.51 0 0 0-26.86 12.226c-6.53-7.49-16.164-12.226-26.879-12.226-3.04 0-6 .388-8.837 1.103-.02-.368-.02-.735-.02-1.103 0-19.715 16-35.716 35.716-35.716 19.736 0 35.717 16 35.717 35.716Z"/><path d="M36.97 65.864c0 .368 0 .735-.02 1.102a35.86 35.86 0 0 0-8.817-1.102A35.51 35.51 0 0 0 1.274 78.09c-6.53-7.49-16.164-12.225-26.88-12.225-3.04 0-6 .388-8.837 1.102-.02-.367-.02-.734-.02-1.102 0-19.715 16.001-35.716 35.717-35.716 19.736 0 35.716 16 35.716 35.716ZM36.97 15.881c0 .368 0 .735-.02 1.102a35.855 35.855 0 0 0-8.817-1.102A35.51 35.51 0 0 0 1.274 28.107c-6.53-7.49-16.164-12.226-26.88-12.226-3.04 0-6 .388-8.837 1.102-.02-.367-.02-.734-.02-1.102 0-19.715 16.001-35.716 35.717-35.716 19.736 0 35.716 16 35.716 35.716ZM100.24 190.811c0 .368 0 .735-.02 1.103a35.833 35.833 0 0 0-8.817-1.103 35.509 35.509 0 0 0-26.86 12.226c-6.53-7.491-16.164-12.226-26.879-12.226-3.04 0-6 .388-8.837 1.103-.02-.368-.02-.735-.02-1.103 0-19.715 16-35.716 35.716-35.716 19.736 0 35.717 16.001 35.717 35.716Z"/><path d="M36.97 215.813c0 .367 0 .735-.02 1.102a35.874 35.874 0 0 0-8.817-1.102 35.51 35.51 0 0 0-26.859 12.225c-6.53-7.49-16.164-12.225-26.88-12.225-3.04 0-6 .388-8.837 1.102-.02-.367-.02-.735-.02-1.102 0-19.715 16.001-35.717 35.717-35.717 19.736 0 35.716 16.002 35.716 35.717ZM100.24 140.828c0 .368 0 .735-.02 1.103a35.833 35.833 0 0 0-8.817-1.103 35.509 35.509 0 0 0-26.86 12.226c-6.53-7.491-16.164-12.226-26.879-12.226-3.04 0-6 .388-8.837 1.103-.02-.368-.02-.735-.02-1.103 0-19.715 16-35.716 35.716-35.716 19.736 0 35.717 16.001 35.717 35.716Z"/><path d="M36.97 165.83c0 .368 0 .735-.02 1.102a35.874 35.874 0 0 0-8.817-1.102 35.51 35.51 0 0 0-26.859 12.225c-6.53-7.49-16.164-12.225-26.88-12.225-3.04 0-6 .388-8.837 1.102-.02-.367-.02-.734-.02-1.102 0-19.715 16.001-35.716 35.717-35.716 19.736 0 35.716 16.001 35.716 35.716ZM36.97 115.847c0 .368 0 .735-.02 1.102a35.874 35.874 0 0 0-8.817-1.102 35.508 35.508 0 0 0-26.859 12.226c-6.53-7.491-16.164-12.226-26.88-12.226-3.04 0-6 .388-8.837 1.102-.02-.367-.02-.734-.02-1.102 0-19.715 16.001-35.716 35.717-35.716 19.736 0 35.716 16 35.716 35.716ZM100.24 290.777c0 .367 0 .735-.02 1.102a35.88 35.88 0 0 0-8.817-1.102 35.511 35.511 0 0 0-26.86 12.225c-6.53-7.49-16.164-12.225-26.879-12.225-3.04 0-6 .388-8.837 1.102-.02-.367-.02-.735-.02-1.102 0-19.716 16-35.717 35.716-35.717 19.736 0 35.717 16.001 35.717 35.717Z"/><path d="M36.97 315.779c0 .367 0 .735-.02 1.102a35.874 35.874 0 0 0-8.817-1.102 35.51 35.51 0 0 0-26.859 12.225c-6.53-7.49-16.164-12.225-26.88-12.225-3.04 0-6 .388-8.837 1.102-.02-.367-.02-.735-.02-1.102 0-19.716 16.001-35.717 35.717-35.717 19.736 0 35.716 16.001 35.716 35.717ZM100.24 240.794c0 .368 0 .735-.02 1.102a35.88 35.88 0 0 0-8.817-1.102 35.509 35.509 0 0 0-26.86 12.226c-6.53-7.491-16.164-12.226-26.879-12.226-3.04 0-6 .388-8.837 1.102-.02-.367-.02-.734-.02-1.102 0-19.715 16-35.716 35.716-35.716 19.736 0 35.717 16.001 35.717 35.716Z"/><path d="M36.97 265.796c0 .367 0 .735-.02 1.102a35.874 35.874 0 0 0-8.817-1.102 35.51 35.51 0 0 0-26.859 12.225c-6.53-7.49-16.164-12.225-26.88-12.225-3.04 0-6 .388-8.837 1.102-.02-.367-.02-.735-.02-1.102 0-19.716 16.001-35.717 35.717-35.717 19.736 0 35.716 16.001 35.716 35.717ZM36.97 215.813c0 .367 0 .735-.02 1.102a35.874 35.874 0 0 0-8.817-1.102 35.51 35.51 0 0 0-26.859 12.225c-6.53-7.49-16.164-12.225-26.88-12.225-3.04 0-6 .388-8.837 1.102-.02-.367-.02-.735-.02-1.102 0-19.716 16.001-35.717 35.717-35.717 19.736 0 35.716 16.001 35.716 35.717ZM100.24 390.743c0 .368 0 .735-.02 1.102a35.88 35.88 0 0 0-8.817-1.102 35.511 35.511 0 0 0-26.86 12.225c-6.53-7.49-16.164-12.225-26.879-12.225-3.04 0-6 .388-8.837 1.102-.02-.367-.02-.734-.02-1.102 0-19.715 16-35.717 35.716-35.717 19.736 0 35.717 16.002 35.717 35.717Z"/><path d="M36.97 415.745c0 .367 0 .735-.02 1.102a35.874 35.874 0 0 0-8.817-1.102A35.51 35.51 0 0 0 1.274 427.97c-6.53-7.49-16.164-12.225-26.88-12.225-3.04 0-6 .388-8.837 1.102-.02-.367-.02-.735-.02-1.102 0-19.716 16.001-35.717 35.717-35.717 19.736 0 35.716 16.001 35.716 35.717ZM100.24 340.76c0 .368 0 .735-.02 1.102a35.88 35.88 0 0 0-8.817-1.102 35.509 35.509 0 0 0-26.86 12.226c-6.53-7.491-16.164-12.226-26.879-12.226-3.04 0-6 .388-8.837 1.102-.02-.367-.02-.734-.02-1.102 0-19.715 16-35.716 35.716-35.716 19.736 0 35.717 16.001 35.717 35.716Z"/><path d="M36.97 365.762c0 .367 0 .735-.02 1.102a35.874 35.874 0 0 0-8.817-1.102 35.51 35.51 0 0 0-26.859 12.225c-6.53-7.49-16.164-12.225-26.88-12.225-3.04 0-6 .388-8.837 1.102-.02-.367-.02-.735-.02-1.102 0-19.716 16.001-35.717 35.717-35.717 19.736 0 35.716 16.001 35.716 35.717ZM36.97 315.779c0 .367 0 .735-.02 1.102a35.874 35.874 0 0 0-8.817-1.102 35.51 35.51 0 0 0-26.859 12.225c-6.53-7.49-16.164-12.225-26.88-12.225-3.04 0-6 .388-8.837 1.102-.02-.367-.02-.735-.02-1.102 0-19.716 16.001-35.717 35.717-35.717 19.736 0 35.716 16.001 35.716 35.717ZM100.24 490.709c0 .367 0 .735-.02 1.102a35.88 35.88 0 0 0-8.817-1.102 35.511 35.511 0 0 0-26.86 12.225c-6.53-7.49-16.164-12.225-26.879-12.225-3.04 0-6 .388-8.837 1.102-.02-.367-.02-.735-.02-1.102 0-19.716 16-35.717 35.716-35.717 19.736 0 35.717 16.001 35.717 35.717Z"/><path d="M36.97 515.711c0 .367 0 .734-.02 1.102a35.826 35.826 0 0 0-8.817-1.102 35.51 35.51 0 0 0-26.859 12.225c-6.53-7.49-16.164-12.225-26.88-12.225-3.04 0-6 .387-8.837 1.102-.02-.368-.02-.735-.02-1.102 0-19.716 16.001-35.717 35.717-35.717 19.736 0 35.716 16.001 35.716 35.717ZM100.24 440.726c0 .367 0 .735-.02 1.102a35.88 35.88 0 0 0-8.817-1.102 35.511 35.511 0 0 0-26.86 12.225c-6.53-7.49-16.164-12.225-26.879-12.225-3.04 0-6 .388-8.837 1.102-.02-.367-.02-.735-.02-1.102 0-19.716 16-35.717 35.716-35.717 19.736 0 35.717 16.001 35.717 35.717Z"/><path d="M36.97 465.728c0 .367 0 .734-.02 1.102a35.826 35.826 0 0 0-8.817-1.102 35.51 35.51 0 0 0-26.859 12.225c-6.53-7.49-16.164-12.225-26.88-12.225-3.04 0-6 .387-8.837 1.102-.02-.368-.02-.735-.02-1.102 0-19.716 16.001-35.717 35.717-35.717 19.736 0 35.716 16.001 35.716 35.717ZM36.97 415.745c0 .367 0 .734-.02 1.102a35.826 35.826 0 0 0-8.817-1.102A35.51 35.51 0 0 0 1.274 427.97c-6.53-7.49-16.164-12.225-26.88-12.225-3.04 0-6 .387-8.837 1.102-.02-.368-.02-.735-.02-1.102 0-19.716 16.001-35.717 35.717-35.717 19.736 0 35.716 16.001 35.716 35.717Z"/></g></svg>