<svg width="129" height="129" fill="none" xmlns="http://www.w3.org/2000/svg"><mask id="a" style="mask-type:alpha" maskUnits="userSpaceOnUse" x="0" y="0" width="129" height="129"><path d="M64.357 128.93c-35.48 0-64.243-28.763-64.243-64.243C.114 29.207 28.877.445 64.357.445c35.48 0 64.242 28.762 64.242 64.242 0 35.48-28.762 64.243-64.242 64.243Z" fill="#FFF6EB"/></mask><g mask="url(#a)" fill="#FFF6EB"><path d="M63.64 122.714c30.236 0 54.748-24.512 54.748-54.75 0-30.237-24.512-54.749-54.749-54.749-30.237 0-54.75 24.512-54.75 54.75 0 30.237 24.513 54.749 54.75 54.749ZM144.415 1.44h-32.023v25.297h32.023V1.44Z"/><path d="M137.442 29.712c0 .093 0 .186-.005.28a9.076 9.076 0 0 0-2.231-.28 8.984 8.984 0 0 0-6.797 3.094 9.007 9.007 0 0 0-6.803-3.093c-.769 0-1.518.098-2.236.278-.005-.093-.005-.186-.005-.279a9.038 9.038 0 0 1 18.077 0Z" stroke="#FFDCB2" stroke-width=".367" stroke-miterlimit="10" stroke-linecap="round" stroke-linejoin="round"/><path d="M121.431 23.385c0 .093 0 .186-.006.28a9.064 9.064 0 0 0-2.231-.28 8.988 8.988 0 0 0-6.797 3.094 9.006 9.006 0 0 0-6.802-3.094 9.15 9.15 0 0 0-2.237.28c-.005-.094-.005-.187-.005-.28a9.04 9.04 0 0 1 18.078 0ZM137.442 17.063c0 .093 0 .186-.005.28a9.081 9.081 0 0 0-2.231-.28 8.984 8.984 0 0 0-6.797 3.094 9.007 9.007 0 0 0-6.803-3.094c-.769 0-1.518.099-2.236.28-.005-.094-.005-.187-.005-.28a9.038 9.038 0 0 1 18.077 0Z" stroke="#FFDCB2" stroke-width=".367" stroke-miterlimit="10" stroke-linecap="round" stroke-linejoin="round"/><path d="M121.431 10.736c0 .093 0 .186-.006.28a9.064 9.064 0 0 0-2.231-.28 8.988 8.988 0 0 0-6.797 3.094 9.007 9.007 0 0 0-6.802-3.094 9.15 9.15 0 0 0-2.237.28c-.005-.094-.005-.187-.005-.28a9.04 9.04 0 0 1 18.078 0ZM137.442 4.414c0 .093 0 .186-.005.28a9.078 9.078 0 0 0-2.231-.28 8.985 8.985 0 0 0-6.797 3.094 9.007 9.007 0 0 0-6.803-3.094c-.769 0-1.518.098-2.236.28-.005-.094-.005-.187-.005-.28a9.038 9.038 0 1 1 18.077 0Z" stroke="#FFDCB2" stroke-width=".367" stroke-miterlimit="10" stroke-linecap="round" stroke-linejoin="round"/><path d="M144.415 26.737h-32.023v25.299h32.023V26.737Z"/><path d="M137.442 55.01c0 .094 0 .187-.005.28a9.076 9.076 0 0 0-2.231-.28 8.984 8.984 0 0 0-6.797 3.095 9.007 9.007 0 0 0-6.803-3.094c-.769 0-1.518.098-2.236.279-.005-.093-.005-.186-.005-.28a9.038 9.038 0 0 1 18.077 0Z" stroke="#FFDCB2" stroke-width=".367" stroke-miterlimit="10" stroke-linecap="round" stroke-linejoin="round"/><path d="M121.431 48.684c0 .093 0 .186-.006.279a9.069 9.069 0 0 0-2.231-.28 8.988 8.988 0 0 0-6.797 3.095 9.007 9.007 0 0 0-6.802-3.094c-.77 0-1.519.098-2.237.279-.005-.093-.005-.186-.005-.28a9.04 9.04 0 0 1 18.078 0ZM137.442 42.362c0 .093 0 .186-.005.279a9.076 9.076 0 0 0-2.231-.28 8.985 8.985 0 0 0-6.797 3.095 9.007 9.007 0 0 0-6.803-3.094c-.769 0-1.518.098-2.236.279-.005-.093-.005-.186-.005-.28a9.038 9.038 0 0 1 18.077 0Z" stroke="#FFDCB2" stroke-width=".367" stroke-miterlimit="10" stroke-linecap="round" stroke-linejoin="round"/><path d="M121.431 36.035c0 .093 0 .186-.006.278a9.069 9.069 0 0 0-2.231-.279 8.988 8.988 0 0 0-6.797 3.094 9.006 9.006 0 0 0-6.802-3.093c-.77 0-1.519.098-2.237.278-.005-.093-.005-.186-.005-.279a9.04 9.04 0 0 1 18.078 0ZM137.442 29.712c0 .093 0 .186-.005.28a9.076 9.076 0 0 0-2.231-.28 8.984 8.984 0 0 0-6.797 3.094 9.007 9.007 0 0 0-6.803-3.093c-.769 0-1.518.098-2.236.278-.005-.093-.005-.186-.005-.279a9.038 9.038 0 0 1 18.077 0Z" stroke="#FFDCB2" stroke-width=".367" stroke-miterlimit="10" stroke-linecap="round" stroke-linejoin="round"/><path d="M144.415 52.036h-32.023v25.298h32.023V52.036Z"/><path d="M137.442 80.31c0 .092 0 .185-.005.278a9.076 9.076 0 0 0-2.231-.279 8.984 8.984 0 0 0-6.797 3.094 9.007 9.007 0 0 0-6.803-3.094c-.769 0-1.518.098-2.236.279-.005-.093-.005-.186-.005-.279a9.038 9.038 0 1 1 18.077 0Z" stroke="#FFDCB2" stroke-width=".367" stroke-miterlimit="10" stroke-linecap="round" stroke-linejoin="round"/><path d="M121.431 73.982c0 .093 0 .186-.006.279a9.064 9.064 0 0 0-2.231-.28 8.988 8.988 0 0 0-6.797 3.095 9.006 9.006 0 0 0-6.802-3.094 9.15 9.15 0 0 0-2.237.279c-.005-.093-.005-.186-.005-.28a9.04 9.04 0 0 1 18.078 0ZM137.442 67.66c0 .093 0 .186-.005.279a9.081 9.081 0 0 0-2.231-.28 8.984 8.984 0 0 0-6.797 3.095 9.007 9.007 0 0 0-6.803-3.094c-.769 0-1.518.098-2.236.279-.005-.093-.005-.186-.005-.28a9.038 9.038 0 0 1 18.077 0Z" stroke="#FFDCB2" stroke-width=".367" stroke-miterlimit="10" stroke-linecap="round" stroke-linejoin="round"/><path d="M121.431 61.333c0 .093 0 .186-.006.279a9.064 9.064 0 0 0-2.231-.28 8.988 8.988 0 0 0-6.797 3.095 9.007 9.007 0 0 0-6.802-3.094 9.15 9.15 0 0 0-2.237.279c-.005-.093-.005-.186-.005-.28a9.04 9.04 0 0 1 18.078 0ZM137.442 55.01c0 .094 0 .187-.005.28a9.076 9.076 0 0 0-2.231-.28 8.984 8.984 0 0 0-6.797 3.095 9.007 9.007 0 0 0-6.803-3.094c-.769 0-1.518.098-2.236.279-.005-.093-.005-.186-.005-.28a9.038 9.038 0 0 1 18.077 0Z" stroke="#FFDCB2" stroke-width=".367" stroke-miterlimit="10" stroke-linecap="round" stroke-linejoin="round"/><path d="M144.415 77.334h-32.023v25.298h32.023V77.334Z"/><path d="M137.442 105.607c0 .093 0 .186-.005.279a9.115 9.115 0 0 0-2.231-.279 8.987 8.987 0 0 0-6.797 3.094 9.009 9.009 0 0 0-6.803-3.094c-.769 0-1.518.099-2.236.279-.005-.093-.005-.186-.005-.279a9.038 9.038 0 0 1 18.077 0Z" stroke="#FFDCB2" stroke-width=".367" stroke-miterlimit="10" stroke-linecap="round" stroke-linejoin="round"/><path d="M121.431 99.28c0 .093 0 .186-.006.28a9.064 9.064 0 0 0-2.231-.28 8.99 8.99 0 0 0-6.797 3.094 9.008 9.008 0 0 0-6.802-3.094 9.15 9.15 0 0 0-2.237.28c-.005-.094-.005-.187-.005-.28a9.04 9.04 0 0 1 18.078 0ZM137.442 92.958c0 .093 0 .186-.005.28a9.076 9.076 0 0 0-2.231-.28 8.984 8.984 0 0 0-6.797 3.094 9.007 9.007 0 0 0-6.803-3.094c-.769 0-1.518.099-2.236.28-.005-.094-.005-.187-.005-.28a9.038 9.038 0 0 1 18.077 0Z" stroke="#FFDCB2" stroke-width=".367" stroke-miterlimit="10" stroke-linecap="round" stroke-linejoin="round"/><path d="M121.431 86.631c0 .093 0 .186-.006.279a9.064 9.064 0 0 0-2.231-.279 8.988 8.988 0 0 0-6.797 3.094 9.007 9.007 0 0 0-6.802-3.094 9.15 9.15 0 0 0-2.237.279c-.005-.093-.005-.186-.005-.279a9.04 9.04 0 0 1 18.078 0ZM137.442 80.31c0 .092 0 .185-.005.278a9.076 9.076 0 0 0-2.231-.279 8.985 8.985 0 0 0-6.797 3.094 9.007 9.007 0 0 0-6.803-3.094c-.769 0-1.518.098-2.236.28-.005-.094-.005-.187-.005-.28a9.038 9.038 0 1 1 18.077 0Z" stroke="#FFDCB2" stroke-width=".367" stroke-miterlimit="10" stroke-linecap="round" stroke-linejoin="round"/><path d="M144.415 102.632h-32.023v25.299h32.023v-25.299Z"/><path d="M137.442 130.906c0 .093 0 .186-.005.279a9.067 9.067 0 0 0-2.231-.279 8.983 8.983 0 0 0-6.797 3.094 9.006 9.006 0 0 0-6.803-3.094c-.769 0-1.518.098-2.236.279-.005-.093-.005-.186-.005-.279a9.038 9.038 0 1 1 18.077 0Z" stroke="#FFDCB2" stroke-width=".367" stroke-miterlimit="10" stroke-linecap="round" stroke-linejoin="round"/><path d="M121.431 124.579c0 .093 0 .186-.006.279a9.055 9.055 0 0 0-2.231-.279 8.989 8.989 0 0 0-6.797 3.093 9.008 9.008 0 0 0-6.802-3.093 9.14 9.14 0 0 0-2.237.279c-.005-.093-.005-.186-.005-.279a9.04 9.04 0 0 1 18.078 0ZM137.442 118.257c0 .093 0 .186-.005.278a9.114 9.114 0 0 0-2.231-.278 8.986 8.986 0 0 0-6.797 3.093 9.008 9.008 0 0 0-6.803-3.093c-.769 0-1.518.098-2.236.278-.005-.092-.005-.185-.005-.278a9.038 9.038 0 1 1 18.077 0Z" stroke="#FFDCB2" stroke-width=".367" stroke-miterlimit="10" stroke-linecap="round" stroke-linejoin="round"/><path d="M121.431 111.929c0 .093 0 .186-.006.279a9.103 9.103 0 0 0-2.231-.279 8.99 8.99 0 0 0-6.797 3.094 9.008 9.008 0 0 0-6.802-3.094c-.77 0-1.519.099-2.237.279-.005-.093-.005-.186-.005-.279a9.039 9.039 0 0 1 18.078 0ZM137.442 105.607c0 .093 0 .186-.005.279a9.115 9.115 0 0 0-2.231-.279 8.987 8.987 0 0 0-6.797 3.094 9.009 9.009 0 0 0-6.803-3.094c-.769 0-1.518.099-2.236.279-.005-.093-.005-.186-.005-.279a9.038 9.038 0 0 1 18.077 0Z" stroke="#FFDCB2" stroke-width=".367" stroke-miterlimit="10" stroke-linecap="round" stroke-linejoin="round"/><path d="M112.392 1.44H80.368v25.297h32.024V1.44Z"/><path d="M121.431 23.385c0 .093 0 .186-.006.28a9.064 9.064 0 0 0-2.231-.28 8.988 8.988 0 0 0-6.797 3.094 9.006 9.006 0 0 0-6.802-3.094 9.15 9.15 0 0 0-2.237.28c-.005-.094-.005-.187-.005-.28a9.04 9.04 0 0 1 18.078 0Z" stroke="#FFDCB2" stroke-width=".367" stroke-miterlimit="10" stroke-linecap="round" stroke-linejoin="round"/><path d="M105.419 29.712c0 .093 0 .186-.005.28a9.078 9.078 0 0 0-2.232-.28 8.986 8.986 0 0 0-6.797 3.094 9.006 9.006 0 0 0-6.802-3.093c-.77 0-1.519.098-2.236.278-.006-.093-.006-.186-.006-.279 0-4.989 4.05-9.038 9.04-9.038a9.039 9.039 0 0 1 9.038 9.038Z" stroke="#FFDCB2" stroke-width=".367" stroke-miterlimit="10" stroke-linecap="round" stroke-linejoin="round"/><path d="M89.407 23.385c0 .093 0 .186-.005.28a9.074 9.074 0 0 0-2.231-.28 8.986 8.986 0 0 0-6.797 3.094 9.006 9.006 0 0 0-6.802-3.094c-.77 0-1.52.098-2.237.28-.005-.094-.005-.187-.005-.28a9.039 9.039 0 0 1 18.078 0ZM121.431 10.736c0 .093 0 .186-.006.28a9.064 9.064 0 0 0-2.231-.28 8.988 8.988 0 0 0-6.797 3.094 9.007 9.007 0 0 0-6.802-3.094 9.15 9.15 0 0 0-2.237.28c-.005-.094-.005-.187-.005-.28a9.04 9.04 0 0 1 18.078 0Z" stroke="#FFDCB2" stroke-width=".367" stroke-miterlimit="10" stroke-linecap="round" stroke-linejoin="round"/><path d="M105.419 17.063c0 .093 0 .186-.005.28a9.083 9.083 0 0 0-2.232-.28 8.986 8.986 0 0 0-6.797 3.094 9.006 9.006 0 0 0-6.802-3.094 9.15 9.15 0 0 0-2.236.28c-.006-.094-.006-.187-.006-.28 0-4.99 4.05-9.038 9.04-9.038a9.039 9.039 0 0 1 9.038 9.038Z" stroke="#FFDCB2" stroke-width=".367" stroke-miterlimit="10" stroke-linecap="round" stroke-linejoin="round"/><path d="M89.407 10.736c0 .093 0 .186-.005.28a9.074 9.074 0 0 0-2.231-.28 8.987 8.987 0 0 0-6.797 3.094 9.006 9.006 0 0 0-6.802-3.094c-.77 0-1.52.098-2.237.28-.005-.094-.005-.187-.005-.28a9.039 9.039 0 1 1 18.078 0ZM105.419 4.414c0 .093 0 .186-.005.28a9.08 9.08 0 0 0-2.232-.28 8.986 8.986 0 0 0-6.797 3.094 9.006 9.006 0 0 0-6.802-3.094c-.77 0-1.519.098-2.236.28-.006-.094-.006-.187-.006-.28 0-4.99 4.05-9.039 9.04-9.039a9.039 9.039 0 0 1 9.038 9.04Z" stroke="#FFDCB2" stroke-width=".367" stroke-miterlimit="10" stroke-linecap="round" stroke-linejoin="round"/><path d="M112.392 26.737H80.368v25.299h32.024V26.737Z"/><path d="M121.431 48.684c0 .093 0 .186-.006.279a9.069 9.069 0 0 0-2.231-.28 8.988 8.988 0 0 0-6.797 3.095 9.007 9.007 0 0 0-6.802-3.094c-.77 0-1.519.098-2.237.279-.005-.093-.005-.186-.005-.28a9.04 9.04 0 0 1 18.078 0Z" stroke="#FFDCB2" stroke-width=".367" stroke-miterlimit="10" stroke-linecap="round" stroke-linejoin="round"/><path d="M105.419 55.01c0 .094 0 .187-.005.28a9.078 9.078 0 0 0-2.232-.28 8.986 8.986 0 0 0-6.797 3.095 9.006 9.006 0 0 0-6.802-3.094c-.77 0-1.519.098-2.236.279-.006-.093-.006-.186-.006-.28 0-4.989 4.05-9.038 9.04-9.038a9.039 9.039 0 0 1 9.038 9.039Z" stroke="#FFDCB2" stroke-width=".367" stroke-miterlimit="10" stroke-linecap="round" stroke-linejoin="round"/><path d="M89.407 48.684c0 .093 0 .186-.005.279a9.079 9.079 0 0 0-2.231-.28 8.987 8.987 0 0 0-6.797 3.095 9.006 9.006 0 0 0-6.802-3.094c-.77 0-1.52.098-2.237.279-.005-.093-.005-.186-.005-.28a9.039 9.039 0 0 1 18.078 0ZM121.431 36.035c0 .093 0 .186-.006.278a9.069 9.069 0 0 0-2.231-.279 8.988 8.988 0 0 0-6.797 3.094 9.006 9.006 0 0 0-6.802-3.093c-.77 0-1.519.098-2.237.278-.005-.093-.005-.186-.005-.279a9.04 9.04 0 0 1 18.078 0Z" stroke="#FFDCB2" stroke-width=".367" stroke-miterlimit="10" stroke-linecap="round" stroke-linejoin="round"/><path d="M105.419 42.362c0 .093 0 .186-.005.279a9.078 9.078 0 0 0-2.232-.28 8.987 8.987 0 0 0-6.797 3.095 9.006 9.006 0 0 0-6.802-3.094c-.77 0-1.519.098-2.236.279-.006-.093-.006-.186-.006-.28 0-4.989 4.05-9.038 9.04-9.038a9.039 9.039 0 0 1 9.038 9.039Z" stroke="#FFDCB2" stroke-width=".367" stroke-miterlimit="10" stroke-linecap="round" stroke-linejoin="round"/><path d="M89.407 36.035c0 .093 0 .186-.005.278a9.079 9.079 0 0 0-2.231-.279 8.986 8.986 0 0 0-6.797 3.094 9.006 9.006 0 0 0-6.802-3.093c-.77 0-1.52.098-2.237.278-.005-.093-.005-.186-.005-.279a9.039 9.039 0 0 1 18.078 0ZM105.419 29.712c0 .093 0 .186-.005.28a9.078 9.078 0 0 0-2.232-.28 8.986 8.986 0 0 0-6.797 3.094 9.006 9.006 0 0 0-6.802-3.093c-.77 0-1.519.098-2.236.278-.006-.093-.006-.186-.006-.279 0-4.989 4.05-9.038 9.04-9.038a9.039 9.039 0 0 1 9.038 9.038Z" stroke="#FFDCB2" stroke-width=".367" stroke-miterlimit="10" stroke-linecap="round" stroke-linejoin="round"/><path d="M112.392 52.036H80.368v25.298h32.024V52.036Z"/><path d="M121.431 73.982c0 .093 0 .186-.006.279a9.064 9.064 0 0 0-2.231-.28 8.988 8.988 0 0 0-6.797 3.095 9.006 9.006 0 0 0-6.802-3.094 9.15 9.15 0 0 0-2.237.279c-.005-.093-.005-.186-.005-.28a9.04 9.04 0 0 1 18.078 0Z" stroke="#FFDCB2" stroke-width=".367" stroke-miterlimit="10" stroke-linecap="round" stroke-linejoin="round"/><path d="M105.419 80.31c0 .092 0 .185-.005.278a9.078 9.078 0 0 0-2.232-.279 8.986 8.986 0 0 0-6.797 3.094 9.006 9.006 0 0 0-6.802-3.094c-.77 0-1.519.098-2.236.279-.006-.093-.006-.186-.006-.279 0-4.99 4.05-9.039 9.04-9.039a9.039 9.039 0 0 1 9.038 9.04Z" stroke="#FFDCB2" stroke-width=".367" stroke-miterlimit="10" stroke-linecap="round" stroke-linejoin="round"/><path d="M89.407 73.982c0 .093 0 .186-.005.279a9.074 9.074 0 0 0-2.231-.28 8.986 8.986 0 0 0-6.797 3.095 9.006 9.006 0 0 0-6.802-3.094c-.77 0-1.52.098-2.237.279-.005-.093-.005-.186-.005-.28a9.039 9.039 0 0 1 18.078 0ZM121.431 61.333c0 .093 0 .186-.006.279a9.064 9.064 0 0 0-2.231-.28 8.988 8.988 0 0 0-6.797 3.095 9.007 9.007 0 0 0-6.802-3.094 9.15 9.15 0 0 0-2.237.279c-.005-.093-.005-.186-.005-.28a9.04 9.04 0 0 1 18.078 0Z" stroke="#FFDCB2" stroke-width=".367" stroke-miterlimit="10" stroke-linecap="round" stroke-linejoin="round"/><path d="M105.419 67.66c0 .093 0 .186-.005.279a9.083 9.083 0 0 0-2.232-.28 8.986 8.986 0 0 0-6.797 3.095 9.006 9.006 0 0 0-6.802-3.094 9.15 9.15 0 0 0-2.236.279c-.006-.093-.006-.186-.006-.28 0-4.989 4.05-9.038 9.04-9.038a9.039 9.039 0 0 1 9.038 9.039Z" stroke="#FFDCB2" stroke-width=".367" stroke-miterlimit="10" stroke-linecap="round" stroke-linejoin="round"/><path d="M89.407 61.333c0 .093 0 .186-.005.279a9.074 9.074 0 0 0-2.231-.28 8.987 8.987 0 0 0-6.797 3.095 9.006 9.006 0 0 0-6.802-3.094c-.77 0-1.52.098-2.237.279-.005-.093-.005-.186-.005-.28a9.039 9.039 0 0 1 18.078 0ZM105.419 55.01c0 .094 0 .187-.005.28a9.078 9.078 0 0 0-2.232-.28 8.986 8.986 0 0 0-6.797 3.095 9.006 9.006 0 0 0-6.802-3.094c-.77 0-1.519.098-2.236.279-.006-.093-.006-.186-.006-.28 0-4.989 4.05-9.038 9.04-9.038a9.039 9.039 0 0 1 9.038 9.039Z" stroke="#FFDCB2" stroke-width=".367" stroke-miterlimit="10" stroke-linecap="round" stroke-linejoin="round"/><path d="M112.392 77.334H80.368v25.298h32.024V77.334Z"/><path d="M121.431 99.28c0 .093 0 .186-.006.28a9.064 9.064 0 0 0-2.231-.28 8.99 8.99 0 0 0-6.797 3.094 9.008 9.008 0 0 0-6.802-3.094 9.15 9.15 0 0 0-2.237.28c-.005-.094-.005-.187-.005-.28a9.04 9.04 0 0 1 18.078 0Z" stroke="#FFDCB2" stroke-width=".367" stroke-miterlimit="10" stroke-linecap="round" stroke-linejoin="round"/><path d="M105.419 105.607c0 .093 0 .186-.005.279a9.117 9.117 0 0 0-2.232-.279 8.989 8.989 0 0 0-6.797 3.094 9.008 9.008 0 0 0-6.802-3.094c-.77 0-1.519.099-2.236.279-.006-.093-.006-.186-.006-.279 0-4.989 4.05-9.038 9.04-9.038a9.039 9.039 0 0 1 9.038 9.038Z" stroke="#FFDCB2" stroke-width=".367" stroke-miterlimit="10" stroke-linecap="round" stroke-linejoin="round"/><path d="M89.407 99.28c0 .093 0 .186-.005.28a9.074 9.074 0 0 0-2.231-.28 8.988 8.988 0 0 0-6.797 3.094 9.008 9.008 0 0 0-6.802-3.094c-.77 0-1.52.098-2.237.28-.005-.094-.005-.187-.005-.28a9.039 9.039 0 0 1 18.078 0ZM121.431 86.631c0 .093 0 .186-.006.279a9.064 9.064 0 0 0-2.231-.279 8.988 8.988 0 0 0-6.797 3.094 9.007 9.007 0 0 0-6.802-3.094 9.15 9.15 0 0 0-2.237.279c-.005-.093-.005-.186-.005-.279a9.04 9.04 0 0 1 18.078 0Z" stroke="#FFDCB2" stroke-width=".367" stroke-miterlimit="10" stroke-linecap="round" stroke-linejoin="round"/><path d="M105.419 92.958c0 .093 0 .186-.005.28a9.083 9.083 0 0 0-2.232-.28 8.986 8.986 0 0 0-6.797 3.094 9.006 9.006 0 0 0-6.802-3.094 9.15 9.15 0 0 0-2.236.28c-.006-.094-.006-.187-.006-.28 0-4.99 4.05-9.039 9.04-9.039a9.039 9.039 0 0 1 9.038 9.04Z" stroke="#FFDCB2" stroke-width=".367" stroke-miterlimit="10" stroke-linecap="round" stroke-linejoin="round"/><path d="M89.407 86.631c0 .093 0 .186-.005.279a9.074 9.074 0 0 0-2.231-.279 8.987 8.987 0 0 0-6.797 3.094 9.006 9.006 0 0 0-6.802-3.094c-.77 0-1.52.098-2.237.279-.005-.093-.005-.186-.005-.279a9.039 9.039 0 1 1 18.078 0ZM105.419 80.31c0 .092 0 .185-.005.278a9.078 9.078 0 0 0-2.232-.279 8.986 8.986 0 0 0-6.797 3.094 9.006 9.006 0 0 0-6.802-3.094c-.77 0-1.519.098-2.236.279-.006-.093-.006-.186-.006-.279 0-4.99 4.05-9.039 9.04-9.039a9.039 9.039 0 0 1 9.038 9.04Z" stroke="#FFDCB2" stroke-width=".367" stroke-miterlimit="10" stroke-linecap="round" stroke-linejoin="round"/><path d="M112.392 102.632H80.368v25.299h32.024v-25.299Z"/><path d="M121.431 124.579c0 .093 0 .186-.006.279a9.055 9.055 0 0 0-2.231-.279 8.989 8.989 0 0 0-6.797 3.093 9.008 9.008 0 0 0-6.802-3.093 9.14 9.14 0 0 0-2.237.279c-.005-.093-.005-.186-.005-.279a9.04 9.04 0 0 1 18.078 0Z" stroke="#FFDCB2" stroke-width=".367" stroke-miterlimit="10" stroke-linecap="round" stroke-linejoin="round"/><path d="M105.419 130.906c0 .093 0 .186-.005.279a9.069 9.069 0 0 0-2.232-.279A8.985 8.985 0 0 0 96.385 134a9.004 9.004 0 0 0-6.802-3.094c-.77 0-1.519.098-2.236.279-.006-.093-.006-.186-.006-.279 0-4.99 4.05-9.039 9.04-9.039a9.038 9.038 0 0 1 9.038 9.039Z" stroke="#FFDCB2" stroke-width=".367" stroke-miterlimit="10" stroke-linecap="round" stroke-linejoin="round"/><path d="M89.407 124.579c0 .093 0 .186-.005.279a9.064 9.064 0 0 0-2.231-.279 8.988 8.988 0 0 0-6.797 3.093 9.007 9.007 0 0 0-6.802-3.093c-.77 0-1.52.098-2.237.279-.005-.093-.005-.186-.005-.279a9.039 9.039 0 1 1 18.078 0ZM121.431 111.929c0 .093 0 .186-.006.279a9.103 9.103 0 0 0-2.231-.279 8.99 8.99 0 0 0-6.797 3.094 9.008 9.008 0 0 0-6.802-3.094c-.77 0-1.519.099-2.237.279-.005-.093-.005-.186-.005-.279a9.039 9.039 0 0 1 18.078 0Z" stroke="#FFDCB2" stroke-width=".367" stroke-miterlimit="10" stroke-linecap="round" stroke-linejoin="round"/><path d="M105.419 118.257c0 .093 0 .186-.005.278a9.116 9.116 0 0 0-2.232-.278 8.988 8.988 0 0 0-6.797 3.093 9.007 9.007 0 0 0-6.802-3.093c-.77 0-1.519.098-2.236.278-.006-.092-.006-.185-.006-.278 0-4.99 4.05-9.039 9.04-9.039a9.038 9.038 0 0 1 9.038 9.039Z" stroke="#FFDCB2" stroke-width=".367" stroke-miterlimit="10" stroke-linecap="round" stroke-linejoin="round"/><path d="M89.407 111.929c0 .093 0 .186-.005.279a9.112 9.112 0 0 0-2.231-.279 8.988 8.988 0 0 0-6.797 3.094 9.008 9.008 0 0 0-6.802-3.094c-.77 0-1.52.099-2.237.279-.005-.093-.005-.186-.005-.279 0-4.989 4.05-9.038 9.039-9.038a9.038 9.038 0 0 1 9.038 9.038Z" stroke="#FFDCB2" stroke-width=".367" stroke-miterlimit="10" stroke-linecap="round" stroke-linejoin="round"/><path d="M105.419 105.607c0 .093 0 .186-.005.279a9.117 9.117 0 0 0-2.232-.279 8.989 8.989 0 0 0-6.797 3.094 9.008 9.008 0 0 0-6.802-3.094c-.77 0-1.519.099-2.236.279-.006-.093-.006-.186-.006-.279 0-4.989 4.05-9.038 9.04-9.038a9.039 9.039 0 0 1 9.038 9.038Z" stroke="#FFDCB2" stroke-width=".367" stroke-miterlimit="10" stroke-linecap="round" stroke-linejoin="round"/><path d="M80.369 1.44H48.346v25.297h32.023V1.44Z"/><path d="M89.408 23.385c0 .093 0 .186-.005.28a9.074 9.074 0 0 0-2.232-.28 8.987 8.987 0 0 0-6.797 3.094 9.006 9.006 0 0 0-6.802-3.094c-.77 0-1.519.098-2.237.28-.005-.094-.005-.187-.005-.28a9.039 9.039 0 0 1 18.078 0Z" stroke="#FFDCB2" stroke-width=".367" stroke-miterlimit="10" stroke-linecap="round" stroke-linejoin="round"/><path d="M73.396 29.712c0 .093 0 .186-.005.28a9.074 9.074 0 0 0-2.232-.28 8.987 8.987 0 0 0-6.797 3.094 9.006 9.006 0 0 0-6.802-3.093c-.77 0-1.519.098-2.236.278-.006-.093-.006-.186-.006-.279 0-4.989 4.05-9.038 9.04-9.038a9.039 9.039 0 0 1 9.038 9.038Z" stroke="#FFDCB2" stroke-width=".367" stroke-miterlimit="10" stroke-linecap="round" stroke-linejoin="round"/><path d="M57.384 23.385c0 .093 0 .186-.005.28a9.074 9.074 0 0 0-2.231-.28 8.986 8.986 0 0 0-6.797 3.094 9.006 9.006 0 0 0-6.803-3.094c-.77 0-1.518.098-2.236.28-.005-.094-.005-.187-.005-.28a9.039 9.039 0 0 1 18.078 0ZM89.408 10.736c0 .093 0 .186-.005.28a9.074 9.074 0 0 0-2.232-.28 8.987 8.987 0 0 0-6.797 3.094 9.006 9.006 0 0 0-6.802-3.094c-.77 0-1.519.098-2.237.28-.005-.094-.005-.187-.005-.28a9.039 9.039 0 1 1 18.078 0Z" stroke="#FFDCB2" stroke-width=".367" stroke-miterlimit="10" stroke-linecap="round" stroke-linejoin="round"/><path d="M73.396 17.063c0 .093 0 .186-.005.28a9.079 9.079 0 0 0-2.232-.28 8.987 8.987 0 0 0-6.797 3.094 9.006 9.006 0 0 0-6.802-3.094c-.77 0-1.519.099-2.236.28-.006-.094-.006-.187-.006-.28 0-4.99 4.05-9.038 9.04-9.038a9.039 9.039 0 0 1 9.038 9.038Z" stroke="#FFDCB2" stroke-width=".367" stroke-miterlimit="10" stroke-linecap="round" stroke-linejoin="round"/><path d="M57.384 10.736c0 .093 0 .186-.005.28a9.074 9.074 0 0 0-2.231-.28 8.987 8.987 0 0 0-6.797 3.094 9.006 9.006 0 0 0-6.803-3.094c-.77 0-1.518.098-2.236.28-.005-.094-.005-.187-.005-.28a9.039 9.039 0 1 1 18.078 0ZM73.396 4.414c0 .093 0 .186-.005.28a9.075 9.075 0 0 0-2.232-.28 8.987 8.987 0 0 0-6.797 3.094 9.006 9.006 0 0 0-6.802-3.094c-.77 0-1.519.098-2.236.28-.006-.094-.006-.187-.006-.28 0-4.99 4.05-9.039 9.04-9.039a9.039 9.039 0 0 1 9.038 9.04Z" stroke="#FFDCB2" stroke-width=".367" stroke-miterlimit="10" stroke-linecap="round" stroke-linejoin="round"/><path d="M80.369 26.737H48.346v25.299h32.023V26.737Z"/><path d="M89.408 48.684c0 .093 0 .186-.005.279a9.079 9.079 0 0 0-2.232-.28 8.987 8.987 0 0 0-6.797 3.095 9.006 9.006 0 0 0-6.802-3.094c-.77 0-1.519.098-2.237.279-.005-.093-.005-.186-.005-.28a9.039 9.039 0 0 1 18.078 0Z" stroke="#FFDCB2" stroke-width=".367" stroke-miterlimit="10" stroke-linecap="round" stroke-linejoin="round"/><path d="M73.396 55.01c0 .094 0 .187-.005.28a9.074 9.074 0 0 0-2.232-.28 8.987 8.987 0 0 0-6.797 3.095 9.006 9.006 0 0 0-6.802-3.094c-.77 0-1.519.098-2.236.279-.006-.093-.006-.186-.006-.28 0-4.989 4.05-9.038 9.04-9.038a9.039 9.039 0 0 1 9.038 9.039Z" stroke="#FFDCB2" stroke-width=".367" stroke-miterlimit="10" stroke-linecap="round" stroke-linejoin="round"/><path d="M57.384 48.684c0 .093 0 .186-.005.279a9.079 9.079 0 0 0-2.231-.28 8.987 8.987 0 0 0-6.797 3.095 9.006 9.006 0 0 0-6.803-3.094c-.77 0-1.518.098-2.236.279-.005-.093-.005-.186-.005-.28a9.039 9.039 0 0 1 18.078 0ZM89.408 36.035c0 .093 0 .186-.005.278a9.079 9.079 0 0 0-2.232-.279 8.987 8.987 0 0 0-6.797 3.094 9.006 9.006 0 0 0-6.802-3.093c-.77 0-1.519.098-2.237.278-.005-.093-.005-.186-.005-.279a9.039 9.039 0 0 1 18.078 0Z" stroke="#FFDCB2" stroke-width=".367" stroke-miterlimit="10" stroke-linecap="round" stroke-linejoin="round"/><path d="M73.396 42.362c0 .093 0 .186-.005.279a9.074 9.074 0 0 0-2.232-.28 8.987 8.987 0 0 0-6.797 3.095 9.006 9.006 0 0 0-6.802-3.094c-.77 0-1.519.098-2.236.279-.006-.093-.006-.186-.006-.28 0-4.989 4.05-9.038 9.04-9.038a9.039 9.039 0 0 1 9.038 9.039Z" stroke="#FFDCB2" stroke-width=".367" stroke-miterlimit="10" stroke-linecap="round" stroke-linejoin="round"/><path d="M57.384 36.035c0 .093 0 .186-.005.278a9.079 9.079 0 0 0-2.231-.279 8.986 8.986 0 0 0-6.797 3.094 9.006 9.006 0 0 0-6.803-3.093c-.77 0-1.518.098-2.236.278-.005-.093-.005-.186-.005-.279a9.039 9.039 0 0 1 18.078 0ZM73.396 29.712c0 .093 0 .186-.005.28a9.074 9.074 0 0 0-2.232-.28 8.987 8.987 0 0 0-6.797 3.094 9.006 9.006 0 0 0-6.802-3.093c-.77 0-1.519.098-2.236.278-.006-.093-.006-.186-.006-.279 0-4.989 4.05-9.038 9.04-9.038a9.039 9.039 0 0 1 9.038 9.038Z" stroke="#FFDCB2" stroke-width=".367" stroke-miterlimit="10" stroke-linecap="round" stroke-linejoin="round"/><path d="M80.369 52.036H48.346v25.298h32.023V52.036Z"/><path d="M89.408 73.982c0 .093 0 .186-.005.279a9.074 9.074 0 0 0-2.232-.28 8.987 8.987 0 0 0-6.797 3.095 9.006 9.006 0 0 0-6.802-3.094c-.77 0-1.519.098-2.237.279-.005-.093-.005-.186-.005-.28a9.039 9.039 0 0 1 18.078 0Z" stroke="#FFDCB2" stroke-width=".367" stroke-miterlimit="10" stroke-linecap="round" stroke-linejoin="round"/><path d="M73.396 80.31c0 .092 0 .185-.005.278a9.074 9.074 0 0 0-2.232-.279 8.987 8.987 0 0 0-6.797 3.094 9.006 9.006 0 0 0-6.802-3.094c-.77 0-1.519.098-2.236.279-.006-.093-.006-.186-.006-.279 0-4.99 4.05-9.039 9.04-9.039a9.039 9.039 0 0 1 9.038 9.04Z" stroke="#FFDCB2" stroke-width=".367" stroke-miterlimit="10" stroke-linecap="round" stroke-linejoin="round"/><path d="M57.384 73.982c0 .093 0 .186-.005.279a9.074 9.074 0 0 0-2.231-.28 8.986 8.986 0 0 0-6.797 3.095 9.006 9.006 0 0 0-6.803-3.094c-.77 0-1.518.098-2.236.279-.005-.093-.005-.186-.005-.28a9.039 9.039 0 0 1 18.078 0ZM89.408 61.333c0 .093 0 .186-.005.279a9.074 9.074 0 0 0-2.232-.28 8.987 8.987 0 0 0-6.797 3.095 9.006 9.006 0 0 0-6.802-3.094c-.77 0-1.519.098-2.237.279-.005-.093-.005-.186-.005-.28a9.039 9.039 0 0 1 18.078 0Z" stroke="#FFDCB2" stroke-width=".367" stroke-miterlimit="10" stroke-linecap="round" stroke-linejoin="round"/><path d="M73.396 67.66c0 .093 0 .186-.005.279a9.079 9.079 0 0 0-2.232-.28 8.987 8.987 0 0 0-6.797 3.095 9.006 9.006 0 0 0-6.802-3.094c-.77 0-1.519.098-2.236.279-.006-.093-.006-.186-.006-.28 0-4.989 4.05-9.038 9.04-9.038a9.039 9.039 0 0 1 9.038 9.039Z" stroke="#FFDCB2" stroke-width=".367" stroke-miterlimit="10" stroke-linecap="round" stroke-linejoin="round"/><path d="M57.384 61.333c0 .093 0 .186-.005.279a9.074 9.074 0 0 0-2.231-.28 8.987 8.987 0 0 0-6.797 3.095 9.006 9.006 0 0 0-6.803-3.094c-.77 0-1.518.098-2.236.279-.005-.093-.005-.186-.005-.28a9.039 9.039 0 0 1 18.078 0ZM73.396 55.01c0 .094 0 .187-.005.28a9.074 9.074 0 0 0-2.232-.28 8.987 8.987 0 0 0-6.797 3.095 9.006 9.006 0 0 0-6.802-3.094c-.77 0-1.519.098-2.236.279-.006-.093-.006-.186-.006-.28 0-4.989 4.05-9.038 9.04-9.038a9.039 9.039 0 0 1 9.038 9.039Z" stroke="#FFDCB2" stroke-width=".367" stroke-miterlimit="10" stroke-linecap="round" stroke-linejoin="round"/><path d="M80.369 77.334H48.346v25.298h32.023V77.334Z"/><path d="M89.408 99.28c0 .093 0 .186-.005.28a9.074 9.074 0 0 0-2.232-.28 8.989 8.989 0 0 0-6.797 3.094 9.008 9.008 0 0 0-6.802-3.094c-.77 0-1.519.098-2.237.28-.005-.094-.005-.187-.005-.28a9.039 9.039 0 0 1 18.078 0Z" stroke="#FFDCB2" stroke-width=".367" stroke-miterlimit="10" stroke-linecap="round" stroke-linejoin="round"/><path d="M73.396 105.607c0 .093 0 .186-.005.279a9.112 9.112 0 0 0-2.232-.279 8.989 8.989 0 0 0-6.797 3.094 9.008 9.008 0 0 0-6.802-3.094c-.77 0-1.519.099-2.236.279-.006-.093-.006-.186-.006-.279 0-4.989 4.05-9.038 9.04-9.038a9.039 9.039 0 0 1 9.038 9.038Z" stroke="#FFDCB2" stroke-width=".367" stroke-miterlimit="10" stroke-linecap="round" stroke-linejoin="round"/><path d="M57.384 99.28c0 .093 0 .186-.005.28a9.074 9.074 0 0 0-2.231-.28 8.988 8.988 0 0 0-6.797 3.094 9.008 9.008 0 0 0-6.803-3.094c-.77 0-1.518.098-2.236.28-.005-.094-.005-.187-.005-.28a9.039 9.039 0 0 1 18.078 0ZM89.408 86.631c0 .093 0 .186-.005.279a9.074 9.074 0 0 0-2.232-.279 8.987 8.987 0 0 0-6.797 3.094 9.006 9.006 0 0 0-6.802-3.094c-.77 0-1.519.098-2.237.279-.005-.093-.005-.186-.005-.279a9.039 9.039 0 1 1 18.078 0Z" stroke="#FFDCB2" stroke-width=".367" stroke-miterlimit="10" stroke-linecap="round" stroke-linejoin="round"/><path d="M73.396 92.958c0 .093 0 .186-.005.28a9.074 9.074 0 0 0-2.232-.28 8.987 8.987 0 0 0-6.797 3.094 9.006 9.006 0 0 0-6.802-3.094c-.77 0-1.519.099-2.236.28-.006-.094-.006-.187-.006-.28 0-4.99 4.05-9.038 9.04-9.038a9.039 9.039 0 0 1 9.038 9.038Z" stroke="#FFDCB2" stroke-width=".367" stroke-miterlimit="10" stroke-linecap="round" stroke-linejoin="round"/><path d="M57.384 86.631c0 .093 0 .186-.005.279a9.074 9.074 0 0 0-2.231-.279 8.987 8.987 0 0 0-6.797 3.094 9.006 9.006 0 0 0-6.803-3.094c-.77 0-1.518.098-2.236.279-.005-.093-.005-.186-.005-.279a9.039 9.039 0 1 1 18.078 0ZM73.396 80.31c0 .092 0 .185-.005.278a9.074 9.074 0 0 0-2.232-.279 8.987 8.987 0 0 0-6.797 3.094 9.006 9.006 0 0 0-6.802-3.094c-.77 0-1.519.098-2.236.28-.006-.094-.006-.187-.006-.28 0-4.99 4.05-9.039 9.04-9.039a9.039 9.039 0 0 1 9.038 9.04Z" stroke="#FFDCB2" stroke-width=".367" stroke-miterlimit="10" stroke-linecap="round" stroke-linejoin="round"/><path d="M80.369 102.632H48.346v25.299h32.023v-25.299Z"/><path d="M89.408 124.579c0 .093 0 .186-.005.279a9.064 9.064 0 0 0-2.232-.279 8.988 8.988 0 0 0-6.797 3.093 9.007 9.007 0 0 0-6.802-3.093c-.77 0-1.519.098-2.237.279-.005-.093-.005-.186-.005-.279a9.039 9.039 0 1 1 18.078 0Z" stroke="#FFDCB2" stroke-width=".367" stroke-miterlimit="10" stroke-linecap="round" stroke-linejoin="round"/><path d="M73.396 130.906c0 .093 0 .186-.005.279a9.064 9.064 0 0 0-2.232-.279A8.985 8.985 0 0 0 64.362 134a9.004 9.004 0 0 0-6.802-3.094c-.77 0-1.519.098-2.236.279-.006-.093-.006-.186-.006-.279 0-4.99 4.05-9.039 9.04-9.039a9.039 9.039 0 0 1 9.038 9.039Z" stroke="#FFDCB2" stroke-width=".367" stroke-miterlimit="10" stroke-linecap="round" stroke-linejoin="round"/><path d="M57.384 124.579c0 .093 0 .186-.005.279a9.064 9.064 0 0 0-2.231-.279 8.988 8.988 0 0 0-6.797 3.093 9.007 9.007 0 0 0-6.803-3.093c-.77 0-1.518.098-2.236.279-.005-.093-.005-.186-.005-.279a9.039 9.039 0 1 1 18.078 0ZM89.408 111.929c0 .093 0 .186-.005.279a9.112 9.112 0 0 0-2.232-.279 8.989 8.989 0 0 0-6.797 3.094 9.008 9.008 0 0 0-6.802-3.094c-.77 0-1.519.099-2.237.279-.005-.093-.005-.186-.005-.279 0-4.989 4.05-9.038 9.039-9.038a9.038 9.038 0 0 1 9.039 9.038Z" stroke="#FFDCB2" stroke-width=".367" stroke-miterlimit="10" stroke-linecap="round" stroke-linejoin="round"/><path d="M73.396 118.257c0 .093 0 .186-.005.278a9.112 9.112 0 0 0-2.232-.278 8.988 8.988 0 0 0-6.797 3.093 9.007 9.007 0 0 0-6.802-3.093c-.77 0-1.519.098-2.236.278-.006-.092-.006-.185-.006-.278 0-4.99 4.05-9.039 9.04-9.039a9.039 9.039 0 0 1 9.038 9.039Z" stroke="#FFDCB2" stroke-width=".367" stroke-miterlimit="10" stroke-linecap="round" stroke-linejoin="round"/><path d="M57.384 111.929c0 .093 0 .186-.005.279a9.112 9.112 0 0 0-2.231-.279 8.989 8.989 0 0 0-6.797 3.094 9.008 9.008 0 0 0-6.803-3.094c-.77 0-1.518.099-2.236.279-.005-.093-.005-.186-.005-.279a9.038 9.038 0 0 1 18.078 0ZM73.396 105.607c0 .093 0 .186-.005.279a9.112 9.112 0 0 0-2.232-.279 8.989 8.989 0 0 0-6.797 3.094 9.008 9.008 0 0 0-6.802-3.094c-.77 0-1.519.099-2.236.279-.006-.093-.006-.186-.006-.279 0-4.989 4.05-9.038 9.04-9.038a9.039 9.039 0 0 1 9.038 9.038Z" stroke="#FFDCB2" stroke-width=".367" stroke-miterlimit="10" stroke-linecap="round" stroke-linejoin="round"/><path d="M48.345 1.44H16.322v25.297h32.023V1.44Z"/><path d="M57.384 23.385c0 .093 0 .186-.005.28a9.074 9.074 0 0 0-2.231-.28 8.986 8.986 0 0 0-6.797 3.094 9.006 9.006 0 0 0-6.803-3.094c-.77 0-1.518.098-2.236.28-.005-.094-.005-.187-.005-.28a9.039 9.039 0 0 1 18.078 0ZM41.373 29.712c0 .093 0 .186-.006.28a9.074 9.074 0 0 0-2.23-.28 8.986 8.986 0 0 0-6.798 3.094 9.006 9.006 0 0 0-6.802-3.093c-.77 0-1.519.098-2.237.278-.005-.093-.005-.186-.005-.279a9.039 9.039 0 0 1 18.078 0Z" stroke="#FFDCB2" stroke-width=".367" stroke-miterlimit="10" stroke-linecap="round" stroke-linejoin="round"/><path d="M25.361 23.385c0 .093 0 .186-.005.28a9.074 9.074 0 0 0-2.231-.28 8.987 8.987 0 0 0-6.798 3.094 9.006 9.006 0 0 0-6.802-3.094c-.77 0-1.518.098-2.236.28-.006-.094-.006-.187-.006-.28 0-4.99 4.05-9.038 9.04-9.038a9.039 9.039 0 0 1 9.038 9.038ZM57.384 10.736c0 .093 0 .186-.005.28a9.074 9.074 0 0 0-2.231-.28 8.987 8.987 0 0 0-6.797 3.094 9.006 9.006 0 0 0-6.803-3.094c-.77 0-1.518.098-2.236.28-.005-.094-.005-.187-.005-.28a9.039 9.039 0 1 1 18.078 0Z" stroke="#FFDCB2" stroke-width=".367" stroke-miterlimit="10" stroke-linecap="round" stroke-linejoin="round"/><path d="M41.373 17.063c0 .093 0 .186-.006.28a9.079 9.079 0 0 0-2.23-.28 8.986 8.986 0 0 0-6.798 3.094 9.006 9.006 0 0 0-6.802-3.094c-.77 0-1.519.099-2.237.28-.005-.094-.005-.187-.005-.28a9.039 9.039 0 0 1 18.078 0Z" stroke="#FFDCB2" stroke-width=".367" stroke-miterlimit="10" stroke-linecap="round" stroke-linejoin="round"/><path d="M25.361 10.736c0 .093 0 .186-.005.28a9.074 9.074 0 0 0-2.231-.28 8.987 8.987 0 0 0-6.798 3.094 9.006 9.006 0 0 0-6.802-3.094c-.77 0-1.518.098-2.236.28-.006-.094-.006-.187-.006-.28 0-4.99 4.05-9.039 9.04-9.039a9.039 9.039 0 0 1 9.038 9.04Z" stroke="#FFDCB2" stroke-width=".367" stroke-miterlimit="10" stroke-linecap="round" stroke-linejoin="round"/><path d="M41.373 4.414c0 .093 0 .186-.006.28a9.075 9.075 0 0 0-2.23-.28 8.986 8.986 0 0 0-6.798 3.094 9.006 9.006 0 0 0-6.802-3.094c-.77 0-1.519.098-2.237.28-.005-.094-.005-.187-.005-.28a9.039 9.039 0 1 1 18.078 0Z" stroke="#FFDCB2" stroke-width=".367" stroke-miterlimit="10" stroke-linecap="round" stroke-linejoin="round"/><path d="M48.345 26.737H16.322v25.299h32.023V26.737Z"/><path d="M57.384 48.684c0 .093 0 .186-.005.279a9.079 9.079 0 0 0-2.231-.28 8.987 8.987 0 0 0-6.797 3.095 9.006 9.006 0 0 0-6.803-3.094c-.77 0-1.518.098-2.236.279-.005-.093-.005-.186-.005-.28a9.039 9.039 0 0 1 18.078 0ZM41.373 55.01c0 .094 0 .187-.006.28a9.074 9.074 0 0 0-2.23-.28 8.986 8.986 0 0 0-6.798 3.095 9.006 9.006 0 0 0-6.802-3.094c-.77 0-1.519.098-2.237.279-.005-.093-.005-.186-.005-.28a9.039 9.039 0 0 1 18.078 0Z" stroke="#FFDCB2" stroke-width=".367" stroke-miterlimit="10" stroke-linecap="round" stroke-linejoin="round"/><path d="M25.361 48.684c0 .093 0 .186-.005.279a9.079 9.079 0 0 0-2.231-.28 8.987 8.987 0 0 0-6.798 3.095 9.006 9.006 0 0 0-6.802-3.094c-.77 0-1.518.098-2.236.279-.006-.093-.006-.186-.006-.28 0-4.989 4.05-9.038 9.04-9.038a9.039 9.039 0 0 1 9.038 9.039ZM57.384 36.035c0 .093 0 .186-.005.278a9.079 9.079 0 0 0-2.231-.279 8.986 8.986 0 0 0-6.797 3.094 9.006 9.006 0 0 0-6.803-3.093c-.77 0-1.518.098-2.236.278-.005-.093-.005-.186-.005-.279a9.039 9.039 0 0 1 18.078 0Z" stroke="#FFDCB2" stroke-width=".367" stroke-miterlimit="10" stroke-linecap="round" stroke-linejoin="round"/><path d="M41.373 42.362c0 .093 0 .186-.006.279a9.074 9.074 0 0 0-2.23-.28 8.987 8.987 0 0 0-6.798 3.095 9.006 9.006 0 0 0-6.802-3.094c-.77 0-1.519.098-2.237.279-.005-.093-.005-.186-.005-.28a9.039 9.039 0 0 1 18.078 0Z" stroke="#FFDCB2" stroke-width=".367" stroke-miterlimit="10" stroke-linecap="round" stroke-linejoin="round"/><path d="M25.361 36.035c0 .093 0 .186-.005.278a9.079 9.079 0 0 0-2.231-.279 8.987 8.987 0 0 0-6.798 3.094 9.006 9.006 0 0 0-6.802-3.093c-.77 0-1.518.098-2.236.278-.006-.093-.006-.186-.006-.279 0-4.989 4.05-9.038 9.04-9.038a9.039 9.039 0 0 1 9.038 9.039Z" stroke="#FFDCB2" stroke-width=".367" stroke-miterlimit="10" stroke-linecap="round" stroke-linejoin="round"/><path d="M41.373 29.712c0 .093 0 .186-.006.28a9.074 9.074 0 0 0-2.23-.28 8.986 8.986 0 0 0-6.798 3.094 9.006 9.006 0 0 0-6.802-3.093c-.77 0-1.519.098-2.237.278-.005-.093-.005-.186-.005-.279a9.039 9.039 0 0 1 18.078 0Z" stroke="#FFDCB2" stroke-width=".367" stroke-miterlimit="10" stroke-linecap="round" stroke-linejoin="round"/><path d="M48.345 52.036H16.322v25.298h32.023V52.036Z"/><path d="M57.384 73.982c0 .093 0 .186-.005.279a9.074 9.074 0 0 0-2.231-.28 8.986 8.986 0 0 0-6.797 3.095 9.006 9.006 0 0 0-6.803-3.094c-.77 0-1.518.098-2.236.279-.005-.093-.005-.186-.005-.28a9.039 9.039 0 0 1 18.078 0ZM41.373 80.31c0 .092 0 .185-.006.278a9.074 9.074 0 0 0-2.23-.279 8.986 8.986 0 0 0-6.798 3.094 9.006 9.006 0 0 0-6.802-3.094c-.77 0-1.519.098-2.237.279-.005-.093-.005-.186-.005-.279a9.039 9.039 0 1 1 18.078 0Z" stroke="#FFDCB2" stroke-width=".367" stroke-miterlimit="10" stroke-linecap="round" stroke-linejoin="round"/><path d="M25.361 73.982c0 .093 0 .186-.005.279a9.074 9.074 0 0 0-2.231-.28 8.987 8.987 0 0 0-6.798 3.095 9.006 9.006 0 0 0-6.802-3.094c-.77 0-1.518.098-2.236.279-.006-.093-.006-.186-.006-.28 0-4.988 4.05-9.038 9.04-9.038a9.039 9.039 0 0 1 9.038 9.039ZM57.384 61.333c0 .093 0 .186-.005.279a9.074 9.074 0 0 0-2.231-.28 8.987 8.987 0 0 0-6.797 3.095 9.006 9.006 0 0 0-6.803-3.094c-.77 0-1.518.098-2.236.279-.005-.093-.005-.186-.005-.28a9.039 9.039 0 0 1 18.078 0Z" stroke="#FFDCB2" stroke-width=".367" stroke-miterlimit="10" stroke-linecap="round" stroke-linejoin="round"/><path d="M41.373 67.66c0 .093 0 .186-.006.279a9.079 9.079 0 0 0-2.23-.28 8.986 8.986 0 0 0-6.798 3.095 9.006 9.006 0 0 0-6.802-3.094c-.77 0-1.519.098-2.237.279-.005-.093-.005-.186-.005-.28a9.039 9.039 0 0 1 18.078 0Z" stroke="#FFDCB2" stroke-width=".367" stroke-miterlimit="10" stroke-linecap="round" stroke-linejoin="round"/><path d="M25.361 61.333c0 .093 0 .186-.005.279a9.074 9.074 0 0 0-2.231-.28 8.987 8.987 0 0 0-6.798 3.095 9.006 9.006 0 0 0-6.802-3.094c-.77 0-1.518.098-2.236.279-.006-.093-.006-.186-.006-.28 0-4.989 4.05-9.038 9.04-9.038a9.039 9.039 0 0 1 9.038 9.039Z" stroke="#FFDCB2" stroke-width=".367" stroke-miterlimit="10" stroke-linecap="round" stroke-linejoin="round"/><path d="M41.373 55.01c0 .094 0 .187-.006.28a9.074 9.074 0 0 0-2.23-.28 8.986 8.986 0 0 0-6.798 3.095 9.006 9.006 0 0 0-6.802-3.094c-.77 0-1.519.098-2.237.279-.005-.093-.005-.186-.005-.28a9.039 9.039 0 0 1 18.078 0Z" stroke="#FFDCB2" stroke-width=".367" stroke-miterlimit="10" stroke-linecap="round" stroke-linejoin="round"/><path d="M48.345 77.334H16.322v25.298h32.023V77.334Z"/><path d="M57.384 99.28c0 .093 0 .186-.005.28a9.074 9.074 0 0 0-2.231-.28 8.988 8.988 0 0 0-6.797 3.094 9.008 9.008 0 0 0-6.803-3.094c-.77 0-1.518.098-2.236.28-.005-.094-.005-.187-.005-.28a9.039 9.039 0 0 1 18.078 0ZM41.373 105.607c0 .093 0 .186-.006.279a9.112 9.112 0 0 0-2.23-.279 8.988 8.988 0 0 0-6.798 3.094 9.008 9.008 0 0 0-6.802-3.094c-.77 0-1.519.099-2.237.279-.005-.093-.005-.186-.005-.279a9.039 9.039 0 0 1 18.078 0Z" stroke="#FFDCB2" stroke-width=".367" stroke-miterlimit="10" stroke-linecap="round" stroke-linejoin="round"/><path d="M25.361 99.28c0 .093 0 .186-.005.28a9.074 9.074 0 0 0-2.231-.28 8.989 8.989 0 0 0-6.798 3.094 9.008 9.008 0 0 0-6.802-3.094c-.77 0-1.518.098-2.236.28-.006-.094-.006-.187-.006-.28 0-4.99 4.05-9.038 9.04-9.038a9.039 9.039 0 0 1 9.038 9.038ZM57.384 86.631c0 .093 0 .186-.005.279a9.074 9.074 0 0 0-2.231-.279 8.987 8.987 0 0 0-6.797 3.094 9.006 9.006 0 0 0-6.803-3.094c-.77 0-1.518.098-2.236.279-.005-.093-.005-.186-.005-.279a9.039 9.039 0 1 1 18.078 0Z" stroke="#FFDCB2" stroke-width=".367" stroke-miterlimit="10" stroke-linecap="round" stroke-linejoin="round"/><path d="M41.373 92.958c0 .093 0 .186-.006.28a9.074 9.074 0 0 0-2.23-.28 8.986 8.986 0 0 0-6.798 3.094 9.006 9.006 0 0 0-6.802-3.094c-.77 0-1.519.099-2.237.28-.005-.094-.005-.187-.005-.28a9.039 9.039 0 0 1 18.078 0Z" stroke="#FFDCB2" stroke-width=".367" stroke-miterlimit="10" stroke-linecap="round" stroke-linejoin="round"/><path d="M25.361 86.631c0 .093 0 .186-.005.279a9.074 9.074 0 0 0-2.231-.279 8.987 8.987 0 0 0-6.798 3.094 9.006 9.006 0 0 0-6.802-3.094c-.77 0-1.518.098-2.236.279-.006-.093-.006-.186-.006-.279 0-4.99 4.05-9.039 9.04-9.039a9.039 9.039 0 0 1 9.038 9.04Z" stroke="#FFDCB2" stroke-width=".367" stroke-miterlimit="10" stroke-linecap="round" stroke-linejoin="round"/><path d="M41.373 80.31c0 .092 0 .185-.006.278a9.074 9.074 0 0 0-2.23-.279 8.987 8.987 0 0 0-6.798 3.094 9.006 9.006 0 0 0-6.802-3.094c-.77 0-1.519.098-2.237.28-.005-.094-.005-.187-.005-.28a9.039 9.039 0 1 1 18.078 0Z" stroke="#FFDCB2" stroke-width=".367" stroke-miterlimit="10" stroke-linecap="round" stroke-linejoin="round"/><path d="M48.345 102.632H16.322v25.299h32.023v-25.299Z"/><path d="M57.384 124.579c0 .093 0 .186-.005.279a9.064 9.064 0 0 0-2.231-.279 8.988 8.988 0 0 0-6.797 3.093 9.007 9.007 0 0 0-6.803-3.093c-.77 0-1.518.098-2.236.279-.005-.093-.005-.186-.005-.279a9.039 9.039 0 1 1 18.078 0ZM41.373 130.906c0 .093 0 .186-.006.279a9.064 9.064 0 0 0-2.23-.279A8.985 8.985 0 0 0 32.338 134a9.004 9.004 0 0 0-6.802-3.094c-.77 0-1.519.098-2.237.279-.005-.093-.005-.186-.005-.279a9.039 9.039 0 1 1 18.078 0Z" stroke="#FFDCB2" stroke-width=".367" stroke-miterlimit="10" stroke-linecap="round" stroke-linejoin="round"/><path d="M25.361 124.579c0 .093 0 .186-.005.279a9.064 9.064 0 0 0-2.231-.279 8.988 8.988 0 0 0-6.798 3.093 9.007 9.007 0 0 0-6.802-3.093c-.77 0-1.518.098-2.236.279-.006-.093-.006-.186-.006-.279 0-4.99 4.05-9.039 9.04-9.039a9.039 9.039 0 0 1 9.038 9.039ZM57.384 111.929c0 .093 0 .186-.005.279a9.112 9.112 0 0 0-2.231-.279 8.989 8.989 0 0 0-6.797 3.094 9.008 9.008 0 0 0-6.803-3.094c-.77 0-1.518.099-2.236.279-.005-.093-.005-.186-.005-.279a9.038 9.038 0 0 1 18.078 0Z" stroke="#FFDCB2" stroke-width=".367" stroke-miterlimit="10" stroke-linecap="round" stroke-linejoin="round"/><path d="M41.373 118.257c0 .093 0 .186-.006.278a9.112 9.112 0 0 0-2.23-.278 8.988 8.988 0 0 0-6.798 3.093 9.007 9.007 0 0 0-6.802-3.093c-.77 0-1.519.098-2.237.278-.005-.092-.005-.185-.005-.278a9.039 9.039 0 1 1 18.078 0Z" stroke="#FFDCB2" stroke-width=".367" stroke-miterlimit="10" stroke-linecap="round" stroke-linejoin="round"/><path d="M25.361 111.929c0 .093 0 .186-.005.279a9.112 9.112 0 0 0-2.231-.279 8.989 8.989 0 0 0-6.798 3.094 9.008 9.008 0 0 0-6.802-3.094c-.77 0-1.518.099-2.236.279-.006-.093-.006-.186-.006-.279 0-4.989 4.05-9.038 9.04-9.038a9.038 9.038 0 0 1 9.038 9.038Z" stroke="#FFDCB2" stroke-width=".367" stroke-miterlimit="10" stroke-linecap="round" stroke-linejoin="round"/><path d="M41.373 105.607c0 .093 0 .186-.006.279a9.112 9.112 0 0 0-2.23-.279 8.988 8.988 0 0 0-6.798 3.094 9.008 9.008 0 0 0-6.802-3.094c-.77 0-1.519.099-2.237.279-.005-.093-.005-.186-.005-.279a9.039 9.039 0 0 1 18.078 0Z" stroke="#FFDCB2" stroke-width=".367" stroke-miterlimit="10" stroke-linecap="round" stroke-linejoin="round"/><path d="M16.322 1.44H-15.7v25.297h32.023V1.44Z"/><path d="M25.361 23.385c0 .093 0 .186-.005.28a9.074 9.074 0 0 0-2.231-.28 8.987 8.987 0 0 0-6.798 3.094 9.006 9.006 0 0 0-6.802-3.094c-.77 0-1.518.098-2.236.28-.006-.094-.006-.187-.006-.28 0-4.99 4.05-9.038 9.04-9.038a9.039 9.039 0 0 1 9.038 9.038ZM9.35 29.712c0 .093 0 .186-.006.28a9.074 9.074 0 0 0-2.23-.28 8.986 8.986 0 0 0-6.798 3.094 9.006 9.006 0 0 0-6.802-3.093c-.77 0-1.519.098-2.237.278-.005-.093-.005-.186-.005-.279a9.039 9.039 0 0 1 18.078 0ZM25.361 10.736c0 .093 0 .186-.005.28a9.074 9.074 0 0 0-2.231-.28 8.987 8.987 0 0 0-6.798 3.094 9.006 9.006 0 0 0-6.802-3.094c-.77 0-1.518.098-2.236.28-.006-.094-.006-.187-.006-.28 0-4.99 4.05-9.039 9.04-9.039a9.039 9.039 0 0 1 9.038 9.04Z" stroke="#FFDCB2" stroke-width=".367" stroke-miterlimit="10" stroke-linecap="round" stroke-linejoin="round"/><path d="M9.35 17.063c0 .093 0 .186-.006.28a9.079 9.079 0 0 0-2.23-.28 8.986 8.986 0 0 0-6.798 3.094 9.006 9.006 0 0 0-6.802-3.094c-.77 0-1.519.099-2.237.28-.005-.094-.005-.187-.005-.28a9.039 9.039 0 0 1 18.078 0ZM9.35 4.414c0 .093 0 .186-.006.28a9.075 9.075 0 0 0-2.23-.28A8.987 8.987 0 0 0 .315 7.508a9.006 9.006 0 0 0-6.802-3.094c-.77 0-1.519.098-2.237.28-.005-.094-.005-.187-.005-.28a9.039 9.039 0 1 1 18.078 0Z" stroke="#FFDCB2" stroke-width=".367" stroke-miterlimit="10" stroke-linecap="round" stroke-linejoin="round"/><path d="M16.322 26.737H-15.7v25.299h32.023V26.737Z"/><path d="M25.361 48.684c0 .093 0 .186-.005.279a9.079 9.079 0 0 0-2.231-.28 8.987 8.987 0 0 0-6.798 3.095 9.006 9.006 0 0 0-6.802-3.094c-.77 0-1.518.098-2.236.279-.006-.093-.006-.186-.006-.28 0-4.989 4.05-9.038 9.04-9.038a9.039 9.039 0 0 1 9.038 9.039ZM9.35 55.01c0 .094 0 .187-.006.28a9.074 9.074 0 0 0-2.23-.28 8.986 8.986 0 0 0-6.798 3.095 9.006 9.006 0 0 0-6.802-3.094c-.77 0-1.519.098-2.237.279-.005-.093-.005-.186-.005-.28a9.039 9.039 0 0 1 18.078 0ZM25.361 36.035c0 .093 0 .186-.005.278a9.079 9.079 0 0 0-2.231-.279 8.987 8.987 0 0 0-6.798 3.094 9.006 9.006 0 0 0-6.802-3.093c-.77 0-1.518.098-2.236.278-.006-.093-.006-.186-.006-.279 0-4.989 4.05-9.038 9.04-9.038a9.039 9.039 0 0 1 9.038 9.039Z" stroke="#FFDCB2" stroke-width=".367" stroke-miterlimit="10" stroke-linecap="round" stroke-linejoin="round"/><path d="M9.35 42.362c0 .093 0 .186-.006.279a9.074 9.074 0 0 0-2.23-.28 8.987 8.987 0 0 0-6.798 3.095 9.006 9.006 0 0 0-6.802-3.094c-.77 0-1.519.098-2.237.279-.005-.093-.005-.186-.005-.28a9.039 9.039 0 0 1 18.078 0ZM9.35 29.712c0 .093 0 .186-.006.28a9.074 9.074 0 0 0-2.23-.28 8.986 8.986 0 0 0-6.798 3.094 9.006 9.006 0 0 0-6.802-3.093c-.77 0-1.519.098-2.237.278-.005-.093-.005-.186-.005-.279a9.039 9.039 0 0 1 18.078 0Z" stroke="#FFDCB2" stroke-width=".367" stroke-miterlimit="10" stroke-linecap="round" stroke-linejoin="round"/><path d="M16.322 52.036H-15.7v25.298h32.023V52.036Z"/><path d="M25.361 73.982c0 .093 0 .186-.005.279a9.074 9.074 0 0 0-2.231-.28 8.987 8.987 0 0 0-6.798 3.095 9.006 9.006 0 0 0-6.802-3.094c-.77 0-1.518.098-2.236.279-.006-.093-.006-.186-.006-.28 0-4.988 4.05-9.038 9.04-9.038a9.039 9.039 0 0 1 9.038 9.039ZM9.35 80.31c0 .092 0 .185-.006.278a9.074 9.074 0 0 0-2.23-.279 8.986 8.986 0 0 0-6.798 3.094 9.006 9.006 0 0 0-6.802-3.094c-.77 0-1.519.098-2.237.279-.005-.093-.005-.186-.005-.279a9.039 9.039 0 1 1 18.078 0ZM25.361 61.333c0 .093 0 .186-.005.279a9.074 9.074 0 0 0-2.231-.28 8.987 8.987 0 0 0-6.798 3.095 9.006 9.006 0 0 0-6.802-3.094c-.77 0-1.518.098-2.236.279-.006-.093-.006-.186-.006-.28 0-4.989 4.05-9.038 9.04-9.038a9.039 9.039 0 0 1 9.038 9.039Z" stroke="#FFDCB2" stroke-width=".367" stroke-miterlimit="10" stroke-linecap="round" stroke-linejoin="round"/><path d="M9.35 67.66c0 .093 0 .186-.006.279a9.079 9.079 0 0 0-2.23-.28 8.986 8.986 0 0 0-6.798 3.095 9.006 9.006 0 0 0-6.802-3.094c-.77 0-1.519.098-2.237.279-.005-.093-.005-.186-.005-.28a9.039 9.039 0 0 1 18.078 0ZM9.35 55.01c0 .094 0 .187-.006.28a9.074 9.074 0 0 0-2.23-.28 8.986 8.986 0 0 0-6.798 3.095 9.006 9.006 0 0 0-6.802-3.094c-.77 0-1.519.098-2.237.279-.005-.093-.005-.186-.005-.28a9.039 9.039 0 0 1 18.078 0Z" stroke="#FFDCB2" stroke-width=".367" stroke-miterlimit="10" stroke-linecap="round" stroke-linejoin="round"/><path d="M16.322 77.334H-15.7v25.298h32.023V77.334Z"/><path d="M25.361 99.28c0 .093 0 .186-.005.28a9.074 9.074 0 0 0-2.231-.28 8.989 8.989 0 0 0-6.798 3.094 9.008 9.008 0 0 0-6.802-3.094c-.77 0-1.518.098-2.236.28-.006-.094-.006-.187-.006-.28 0-4.99 4.05-9.038 9.04-9.038a9.039 9.039 0 0 1 9.038 9.038ZM9.35 105.607c0 .093 0 .186-.006.279a9.112 9.112 0 0 0-2.23-.279 8.989 8.989 0 0 0-6.798 3.094 9.008 9.008 0 0 0-6.802-3.094c-.77 0-1.519.099-2.237.279-.005-.093-.005-.186-.005-.279a9.039 9.039 0 0 1 18.078 0ZM25.361 86.631c0 .093 0 .186-.005.279a9.074 9.074 0 0 0-2.231-.279 8.987 8.987 0 0 0-6.798 3.094 9.006 9.006 0 0 0-6.802-3.094c-.77 0-1.518.098-2.236.279-.006-.093-.006-.186-.006-.279 0-4.99 4.05-9.039 9.04-9.039a9.039 9.039 0 0 1 9.038 9.04Z" stroke="#FFDCB2" stroke-width=".367" stroke-miterlimit="10" stroke-linecap="round" stroke-linejoin="round"/><path d="M9.35 92.958c0 .093 0 .186-.006.28a9.074 9.074 0 0 0-2.23-.28 8.986 8.986 0 0 0-6.798 3.094 9.006 9.006 0 0 0-6.802-3.094c-.77 0-1.519.099-2.237.28-.005-.094-.005-.187-.005-.28a9.039 9.039 0 0 1 18.078 0ZM9.35 80.31c0 .092 0 .185-.006.278a9.074 9.074 0 0 0-2.23-.279 8.987 8.987 0 0 0-6.798 3.094 9.006 9.006 0 0 0-6.802-3.094c-.77 0-1.519.098-2.237.28-.005-.094-.005-.187-.005-.28a9.039 9.039 0 1 1 18.078 0Z" stroke="#FFDCB2" stroke-width=".367" stroke-miterlimit="10" stroke-linecap="round" stroke-linejoin="round"/><path d="M16.322 102.632H-15.7v25.299h32.023v-25.299Z"/><path d="M25.361 124.579c0 .093 0 .186-.005.279a9.064 9.064 0 0 0-2.231-.279 8.988 8.988 0 0 0-6.798 3.093 9.007 9.007 0 0 0-6.802-3.093c-.77 0-1.518.098-2.236.279-.006-.093-.006-.186-.006-.279 0-4.99 4.05-9.039 9.04-9.039a9.039 9.039 0 0 1 9.038 9.039ZM9.35 130.906c0 .093 0 .186-.006.279a9.064 9.064 0 0 0-2.23-.279A8.985 8.985 0 0 0 .315 134a9.004 9.004 0 0 0-6.802-3.094c-.77 0-1.519.098-2.237.279-.005-.093-.005-.186-.005-.279a9.039 9.039 0 1 1 18.078 0ZM25.361 111.929c0 .093 0 .186-.005.279a9.112 9.112 0 0 0-2.231-.279 8.989 8.989 0 0 0-6.798 3.094 9.008 9.008 0 0 0-6.802-3.094c-.77 0-1.518.099-2.236.279-.006-.093-.006-.186-.006-.279 0-4.989 4.05-9.038 9.04-9.038a9.038 9.038 0 0 1 9.038 9.038Z" stroke="#FFDCB2" stroke-width=".367" stroke-miterlimit="10" stroke-linecap="round" stroke-linejoin="round"/><path d="M9.35 118.257c0 .093 0 .186-.006.278a9.112 9.112 0 0 0-2.23-.278 8.988 8.988 0 0 0-6.798 3.093 9.007 9.007 0 0 0-6.802-3.093c-.77 0-1.519.098-2.237.278-.005-.092-.005-.185-.005-.278a9.039 9.039 0 1 1 18.078 0ZM9.35 105.607c0 .093 0 .186-.006.279a9.112 9.112 0 0 0-2.23-.279 8.989 8.989 0 0 0-6.798 3.094 9.008 9.008 0 0 0-6.802-3.094c-.77 0-1.519.099-2.237.279-.005-.093-.005-.186-.005-.279a9.039 9.039 0 0 1 18.078 0Z" stroke="#FFDCB2" stroke-width=".367" stroke-miterlimit="10" stroke-linecap="round" stroke-linejoin="round"/></g></svg>