<svg width="115" height="106" fill="none" xmlns="http://www.w3.org/2000/svg"><path d="M107.813 101.733a2.95 2.95 0 0 0 2.956 2.956 2.948 2.948 0 0 0 2.956-2.956 2.948 2.948 0 0 0-2.956-2.956 2.96 2.96 0 0 0-2.956 2.956Z" stroke="#FF6F6F" stroke-width="1.781" stroke-miterlimit="10"/><path d="M81.298 101.733a2.949 2.949 0 0 0 2.956 2.956 2.949 2.949 0 0 0 2.956-2.956 2.949 2.949 0 0 0-2.956-2.956 2.96 2.96 0 0 0-2.956 2.956ZM54.8 101.733a2.949 2.949 0 0 0 2.956 2.956 2.949 2.949 0 0 0 2.956-2.956 2.949 2.949 0 0 0-2.956-2.956 2.96 2.96 0 0 0-2.956 2.956Z" stroke="#3C4B4D" stroke-width="1.781" stroke-miterlimit="10"/><path d="M28.285 101.733a2.949 2.949 0 0 0 2.956 2.956 2.949 2.949 0 0 0 2.956-2.956 2.949 2.949 0 0 0-2.956-2.956 2.971 2.971 0 0 0-2.956 2.956Z" stroke="#FF6F6F" stroke-width="1.781" stroke-miterlimit="10"/><path d="M1.787 101.733a2.949 2.949 0 0 0 2.956 2.956 2.949 2.949 0 0 0 2.956-2.956 2.949 2.949 0 0 0-2.956-2.956 2.96 2.96 0 0 0-2.956 2.956ZM107.813 77.301a2.949 2.949 0 0 0 2.956 2.956 2.948 2.948 0 0 0 2.956-2.956 2.948 2.948 0 0 0-2.956-2.956 2.949 2.949 0 0 0-2.956 2.956ZM81.298 77.301a2.949 2.949 0 0 0 2.956 2.956 2.949 2.949 0 0 0 2.956-2.956 2.949 2.949 0 0 0-2.956-2.956 2.949 2.949 0 0 0-2.956 2.956Z" stroke="#3C4B4D" stroke-width="1.781" stroke-miterlimit="10"/><path d="M54.8 77.301a2.949 2.949 0 0 0 2.956 2.956 2.949 2.949 0 0 0 2.956-2.956 2.949 2.949 0 0 0-2.956-2.956 2.949 2.949 0 0 0-2.956 2.956Z" stroke="#FF6F6F" stroke-width="1.781" stroke-miterlimit="10"/><path d="M28.285 77.301a2.949 2.949 0 0 0 2.956 2.956 2.949 2.949 0 0 0 2.956-2.956 2.949 2.949 0 0 0-2.956-2.956 2.96 2.96 0 0 0-2.956 2.956ZM1.787 77.301a2.949 2.949 0 0 0 2.956 2.956 2.949 2.949 0 0 0 2.956-2.956 2.949 2.949 0 0 0-2.956-2.956 2.949 2.949 0 0 0-2.956 2.956Z" stroke="#3C4B4D" stroke-width="1.781" stroke-miterlimit="10"/><path d="M107.813 52.869a2.949 2.949 0 0 0 2.956 2.956 2.948 2.948 0 0 0 2.956-2.956 2.948 2.948 0 0 0-2.956-2.956 2.949 2.949 0 0 0-2.956 2.956ZM81.298 52.869a2.949 2.949 0 0 0 2.956 2.956 2.949 2.949 0 0 0 2.956-2.956 2.949 2.949 0 0 0-2.956-2.956 2.949 2.949 0 0 0-2.956 2.956Z" stroke="#D0D0D0" stroke-width="1.781" stroke-miterlimit="10"/><path d="M54.8 52.869a2.949 2.949 0 0 0 2.956 2.956 2.949 2.949 0 0 0 2.956-2.956 2.949 2.949 0 0 0-2.956-2.956 2.949 2.949 0 0 0-2.956 2.956Z" stroke="#FF6F6F" stroke-width="1.781" stroke-miterlimit="10"/><path d="M28.285 52.869a2.949 2.949 0 0 0 2.956 2.956 2.949 2.949 0 0 0 2.956-2.956 2.949 2.949 0 0 0-2.956-2.956 2.96 2.96 0 0 0-2.956 2.956Z" stroke="#D0D0D0" stroke-width="1.781" stroke-miterlimit="10"/><path d="M1.787 52.869a2.949 2.949 0 0 0 2.956 2.956 2.949 2.949 0 0 0 2.956-2.956 2.949 2.949 0 0 0-2.956-2.956 2.949 2.949 0 0 0-2.956 2.956ZM107.813 28.437a2.949 2.949 0 0 0 2.956 2.956 2.948 2.948 0 0 0 2.956-2.956 2.948 2.948 0 0 0-2.956-2.956 2.949 2.949 0 0 0-2.956 2.956Z" stroke="#FF6F6F" stroke-width="1.781" stroke-miterlimit="10"/><path d="M81.298 28.437a2.949 2.949 0 0 0 2.956 2.956 2.949 2.949 0 0 0 2.956-2.956 2.949 2.949 0 0 0-2.956-2.956 2.949 2.949 0 0 0-2.956 2.956ZM54.8 28.437a2.949 2.949 0 0 0 2.956 2.956 2.949 2.949 0 0 0 2.956-2.956 2.949 2.949 0 0 0-2.956-2.956 2.949 2.949 0 0 0-2.956 2.956ZM28.285 28.437a2.949 2.949 0 0 0 2.956 2.956 2.949 2.949 0 0 0 2.956-2.956 2.949 2.949 0 0 0-2.956-2.956 2.96 2.96 0 0 0-2.956 2.956ZM1.787 28.437a2.949 2.949 0 0 0 2.956 2.956 2.949 2.949 0 0 0 2.956-2.956 2.949 2.949 0 0 0-2.956-2.956 2.949 2.949 0 0 0-2.956 2.956ZM107.813 4.005a2.949 2.949 0 0 0 2.956 2.956 2.948 2.948 0 0 0 2.956-2.956 2.948 2.948 0 0 0-2.956-2.956 2.949 2.949 0 0 0-2.956 2.956Z" stroke="#3C4B4D" stroke-width="1.781" stroke-miterlimit="10"/><path d="M84.254 6.961a2.956 2.956 0 1 1 0-5.912 2.956 2.956 0 0 1 0 5.912Z" stroke="#FF6F6F" stroke-width="1.781" stroke-miterlimit="10"/><path d="M57.756 6.961a2.956 2.956 0 1 1 0-5.912 2.956 2.956 0 0 1 0 5.912ZM28.285 4.005a2.949 2.949 0 0 0 2.956 2.956 2.949 2.949 0 0 0 2.956-2.956A2.949 2.949 0 0 0 31.24 1.05a2.96 2.96 0 0 0-2.956 2.956Z" stroke="#3C4B4D" stroke-width="1.781" stroke-miterlimit="10"/><path d="M1.787 4.005a2.949 2.949 0 0 0 2.956 2.956 2.949 2.949 0 0 0 2.956-2.956A2.949 2.949 0 0 0 4.743 1.05a2.949 2.949 0 0 0-2.956 2.956Z" stroke="#FF6F6F" stroke-width="1.781" stroke-miterlimit="10"/></svg>